<?xml version="1.0" encoding="UTF-8"?>
<!DOCTYPE svg PUBLIC "-//W3C//DTD SVG 1.1//EN" "http://www.w3.org/Graphics/SVG/1.1/DTD/svg11.dtd">
<!-- Creator: CorelDRAW 2017 -->
<svg xmlns="http://www.w3.org/2000/svg" xml:space="preserve" width="50mm" height="50mm" version="1.1" style="shape-rendering:geometricPrecision; text-rendering:geometricPrecision; image-rendering:optimizeQuality; fill-rule:evenodd; clip-rule:evenodd"
viewBox="0 0 5000 5000"
 xmlns:xlink="http://www.w3.org/1999/xlink">
 <defs>
  <style type="text/css">
   <![CDATA[
    .fil0 {fill:black}
    .fil1 {fill:white}
   ]]>
  </style>
 </defs>
 <g id="Слой_x0020_1">
  <metadata id="CorelCorpID_0Corel-Layer"/>
  <g id="_1870445579632">
   <polygon class="fil0" points="4300,1500 4300,4000 700,4000 700,1500 500,1500 500,1250 900,1250 900,1000 1400,1000 1400,1250 3600,1250 3600,1000 4100,1000 4100,1250 4500,1250 4500,1500 "/>
   <rect class="fil1" x="899.98" y="1700" width="3200" height="200"/>
   <rect class="fil1" x="900" y="2256.95" width="500" height="150"/>
   <polygon class="fil1" points="3775,2581.95 3775,2406.95 3600,2406.95 3600,2256.95 3775,2256.95 3775,2081.95 3925,2081.95 3925,2256.95 4100,2256.95 4100,2406.95 3925,2406.95 3925,2581.95 "/>
  </g>
 </g>
</svg>
