<?xml version="1.0" encoding="UTF-8"?>
<!DOCTYPE svg PUBLIC "-//W3C//DTD SVG 1.1//EN" "http://www.w3.org/Graphics/SVG/1.1/DTD/svg11.dtd">
<!-- Creator: CorelDRAW 2017 -->
<svg xmlns="http://www.w3.org/2000/svg" xml:space="preserve" width="50mm" height="50mm" version="1.1" style="shape-rendering:geometricPrecision; text-rendering:geometricPrecision; image-rendering:optimizeQuality; fill-rule:evenodd; clip-rule:evenodd"
viewBox="0 0 5000 5000"
 xmlns:xlink="http://www.w3.org/1999/xlink">
 <defs>
  <style type="text/css">
   <![CDATA[
    .fil0 {fill:black;fill-rule:nonzero}
   ]]>
  </style>
 </defs>
 <g id="Слой_x0020_1">
  <metadata id="CorelCorpID_0Corel-Layer"/>
  <g id="_1834028433568">
   <path class="fil0" d="M2341.32 3581.36c-597.17,0 -1080.75,-484.18 -1080.75,-1081.33 0,-597.19 483.58,-1081.42 1080.75,-1081.42 597.15,0 1081.4,484.23 1081.4,1081.42 0,597.15 -484.25,1081.33 -1081.4,1081.33zm1179.71 -983.7c51.14,-421.19 -133.52,-781.23 -421.14,-1016.31l461 -461c-324.17,-287.6 -751.95,-461.71 -1219.57,-461.71 -1016.99,0 -1841.32,824.4 -1841.32,1841.39 0,1016.95 824.33,1841.32 1841.32,1841.32 984.41,0 1788.16,-772.55 1838.71,-1743.69l-659 0z"/>
   <path class="fil0" d="M2985.64 2437.57c-77.71,0 -140.17,-62.51 -140.17,-140.22 0,-77.07 62.46,-140.09 140.17,-140.09 77.04,0 140.16,63.02 140.16,140.09 0,77.71 -63.12,140.22 -140.16,140.22zm-245.11 757.92c-76.99,0 -139.5,-63.1 -139.5,-140.16 0,-77.71 62.51,-140.13 139.5,-140.13 77.79,0 140.15,62.42 140.15,140.13 0,77.06 -62.36,140.16 -140.15,140.16zm-825.68 -695.46c0,-235.89 190.65,-426.48 426.47,-426.48 235.14,0 426.44,190.59 426.44,426.48 0,235.05 -191.3,425.77 -426.44,425.77 -235.82,0 -426.47,-190.72 -426.47,-425.77zm25.25 695.46c-77.73,0 -140.09,-63.1 -140.09,-140.16 0,-77.71 62.36,-140.13 140.09,-140.13 77.05,0 140.15,62.42 140.15,140.13 0,77.06 -63.1,140.16 -140.15,140.16zm-243.12 -757.92c-77.71,0 -140.15,-62.51 -140.15,-140.22 0,-77.07 62.44,-140.09 140.15,-140.09 77.78,0 140.16,63.02 140.16,140.09 0,77.71 -62.38,140.22 -140.16,140.22zm642.4 -753.98c76.99,0 140.09,63.16 140.09,140.23 0,77.7 -63.1,140.12 -140.09,140.12 -77.79,0 -140.23,-62.42 -140.23,-140.12 0,-77.07 62.44,-140.23 140.23,-140.23zm1.94 -198.55c-559.31,0 -1014.34,455.67 -1014.34,1014.99 0,559.29 455.03,1014.92 1014.34,1014.92 560.02,0 1014.97,-455.63 1014.97,-1014.92 0,-559.32 -454.95,-1014.99 -1014.97,-1014.99z"/>
   <path class="fil0" d="M3593.82 2531.5c21.66,-361.04 -120.02,-701.98 -396.22,-953.8l641.74 -641.72c411.96,435.33 644.66,997.23 660.66,1595.52l-906.18 0z"/>
  </g>
 </g>
</svg>
