<?xml version="1.0" encoding="UTF-8"?>
<!DOCTYPE svg PUBLIC "-//W3C//DTD SVG 1.1//EN" "http://www.w3.org/Graphics/SVG/1.1/DTD/svg11.dtd">
<!-- Creator: CorelDRAW 2017 -->
<svg xmlns="http://www.w3.org/2000/svg" xml:space="preserve" width="50mm" height="50mm" version="1.1" style="shape-rendering:geometricPrecision; text-rendering:geometricPrecision; image-rendering:optimizeQuality; fill-rule:evenodd; clip-rule:evenodd"
viewBox="0 0 5000 5000"
 xmlns:xlink="http://www.w3.org/1999/xlink">
 <defs>
  <style type="text/css">
   <![CDATA[
    .fil0 {fill:black}
   ]]>
  </style>
 </defs>
 <g id="Слой_x0020_1">
  <metadata id="CorelCorpID_0Corel-Layer"/>
  <g id="_1870440111152">
   <path class="fil0" d="M3743.77 2053.39c0,-54.16 16.36,-70.51 70.51,-70.51l70.52 0 0 1903.94 -141.03 0 0 -1833.43zm-282.06 -70.51l70.51 0c54.16,0 70.52,16.35 70.52,70.51l0 1833.43 -141.03 0 0 -1903.94zm-305.58 70.51c0,-54.16 16.36,-70.51 70.52,-70.51l70.51 0 0 1903.94 -141.03 0 0 -1833.43zm-282.07 -70.51l70.52 0c54.16,0 70.52,16.35 70.52,70.51l0 1833.43 -141.04 0 0 -1903.94zm-305.57 70.51c0,-54.16 16.35,-70.51 70.52,-70.51l70.51 0 0 1903.94 -141.03 0 0 -1833.43zm-282.07 -70.51l70.52 0c54.16,0 70.52,16.35 70.52,70.51l0 1833.43 -141.04 0 0 -1903.94zm-305.57 70.51c0,-54.16 16.36,-70.51 70.52,-70.51l70.52 0 0 1903.94 -141.04 0 0 -1833.43zm-282.06 -70.51l70.51 0c54.16,0 70.52,16.35 70.52,70.51l0 1833.43 -141.03 0 0 -1903.94zm-305.58 70.51c0,-54.16 16.36,-70.51 70.52,-70.51l70.51 0 0 1903.94 -141.03 0 0 -1833.43zm-282.06 -70.51l70.51 0c54.16,0 70.52,16.35 70.52,70.51l0 1833.43 -141.03 0 0 -1903.94zm-235.06 141.03l-376.09 0 0 305.57 376.09 0 0 1410.34c0,141.2 140.86,282.06 282.06,282.06l2679.64 0c220.04,0 282.07,-197.95 282.07,-376.09l376.09 0c0,-371.21 70.4,-305.57 -376.09,-305.57l0 -1363.32c0,-231.01 -168.13,-329.08 -399.6,-329.08l-2444.58 0c-268.43,0 -399.59,102.67 -399.59,376.09z"/>
   <path class="fil0" d="M1158.15 1418.74l0 235.05 2374.07 0c-33.59,-29.19 -61.71,-54.73 -101.17,-86.87 -42.47,-34.58 -62.68,-48.26 -104.93,-83.12 -62.92,-51.9 -144.33,-135.58 -240.51,-135.58l-1856.94 0c-54.16,0 -70.52,16.36 -70.52,70.52z"/>
   <polygon class="fil0" points="1604.76,1254.2 1980.85,1254.2 1980.85,878.11 1604.76,878.11 "/>
  </g>
 </g>
</svg>
