<?xml version="1.0" encoding="UTF-8"?>
<!DOCTYPE svg PUBLIC "-//W3C//DTD SVG 1.1//EN" "http://www.w3.org/Graphics/SVG/1.1/DTD/svg11.dtd">
<!-- Creator: CorelDRAW 2017 -->
<svg xmlns="http://www.w3.org/2000/svg" xml:space="preserve" width="50mm" height="50mm" version="1.1" style="shape-rendering:geometricPrecision; text-rendering:geometricPrecision; image-rendering:optimizeQuality; fill-rule:evenodd; clip-rule:evenodd"
viewBox="0 0 5000 5000"
 xmlns:xlink="http://www.w3.org/1999/xlink">
 <defs>
  <style type="text/css">
   <![CDATA[
    .fil0 {fill:black;fill-rule:nonzero}
   ]]>
  </style>
 </defs>
 <g id="Слой_x0020_1">
  <metadata id="CorelCorpID_0Corel-Layer"/>
  <path class="fil0" d="M2790.73 2347.42l-75.64 -929.68 721.68 904.46 40.03 50.33 -686.07 -25.11zm622.12 1735.29l-1868.39 0 0 -1364.46 1868.39 0 0 1364.46zm416.08 -1710.18l-8.4 -10.33 -1.98 -1.85 -1118.93 -1356.09 -31.02 -37.49c-21.96,-19.37 -51.03,-30.34 -82.73,-30.34l-387.64 0 0 -94.32 -602.71 0 0 94.32 -323.03 0c-71.07,0 -129.22,57.5 -129.22,129.2l0 3305.17c0,71.77 58.15,129.2 129.22,129.2l2455.01 0c71.03,0 129.22,-57.43 129.22,-129.2l0 -1919.38c0,-30.43 -10.35,-57.56 -27.79,-78.89zm-1129.22 -1368.32l-31 -37.49c12.91,10.27 23.25,23.26 31,37.49zm-1155.25 -226.91l705.25 0 0 -277.3 -705.25 0 0 277.3zm892.21 3009.52c-21.99,29.72 -65.27,3.22 -91.11,-10.99 -31.02,-16.77 -91.09,-65.89 -85.92,-108.54 9.06,-60.05 69.11,-19.38 103.36,8.99 45.21,41.41 83.36,98.27 73.67,110.54zm331.44 -391.58l-5.18 -7.67 -262.31 -468.38 -277.81 493.58c-25.86,45.21 -39.41,97.55 -39.41,153.1 0,175.02 142.13,315.94 317.22,315.94 175.06,0 316.53,-140.92 316.53,-315.94 0,-62.74 -18.05,-121.51 -49.04,-170.63z"/>
 </g>
</svg>
