<?xml version="1.0" encoding="UTF-8"?>
<!DOCTYPE svg PUBLIC "-//W3C//DTD SVG 1.1//EN" "http://www.w3.org/Graphics/SVG/1.1/DTD/svg11.dtd">
<!-- Creator: CorelDRAW 2017 -->
<svg xmlns="http://www.w3.org/2000/svg" xml:space="preserve" width="50mm" height="50mm" version="1.1" style="shape-rendering:geometricPrecision; text-rendering:geometricPrecision; image-rendering:optimizeQuality; fill-rule:evenodd; clip-rule:evenodd"
viewBox="0 0 5000 5000"
 xmlns:xlink="http://www.w3.org/1999/xlink">
 <defs>
  <style type="text/css">
   <![CDATA[
    .fil0 {fill:black;fill-rule:nonzero}
   ]]>
  </style>
 </defs>
 <g id="Слой_x0020_1">
  <metadata id="CorelCorpID_0Corel-Layer"/>
  <path class="fil0" d="M4270.7 3328.83c-183.67,-267.14 -509.18,-377.89 -805.57,-299.64l-553.01 -553.01 -896.49 -896.47c118.04,-237.39 104.77,-529.8 -57.68,-761.87 -159.2,-226.12 -419.79,-337.52 -676.41,-314.96l342.88 488.61c47.02,67.71 30.44,159.86 -36.52,206.94l-370.6 260.59c-67.63,47.03 -159.88,31.16 -206.89,-36.52l-343.53 -489.29c-108.02,234.72 -92.1,517.78 66.31,743.9 188.37,267.95 519.91,374.71 818.9,289.17l935 934.95 505.19 505.19c-123.92,237.37 -116.04,533.18 45.83,769.22 156.47,228.11 416.4,341.43 673.68,322.25l-338.23 -492.65c-46.35,-67.71 -29.12,-159.15 38.45,-206.29l373.38 -256.54c67.63,-46.41 159.8,-29.17 206.81,37.8l337.5 492.65c110.75,-232.73 97.55,-516.6 -59,-744.03zm-1475.36 -735.95l371.41 371.26c52.96,53.11 52.96,138.58 0,191.69 -26.54,26.52 -61.02,39.79 -96.22,39.79 -34.49,0 -68.91,-13.27 -95.48,-39.79l-371.26 -371.98 -772.55 -772.48c-52.98,-53.11 -52.98,-138.58 0,-191.64 25.92,-26.58 61,-39.77 95.49,-39.77 34.47,0 69.67,13.19 95.54,39.77l773.07 773.15z"/>
 </g>
</svg>
