<?xml version="1.0" encoding="UTF-8"?>
<!DOCTYPE svg PUBLIC "-//W3C//DTD SVG 1.1//EN" "http://www.w3.org/Graphics/SVG/1.1/DTD/svg11.dtd">
<!-- Creator: CorelDRAW 2017 -->
<svg xmlns="http://www.w3.org/2000/svg" xml:space="preserve" width="50mm" height="50mm" version="1.1" style="shape-rendering:geometricPrecision; text-rendering:geometricPrecision; image-rendering:optimizeQuality; fill-rule:evenodd; clip-rule:evenodd"
viewBox="0 0 5000 5000"
 xmlns:xlink="http://www.w3.org/1999/xlink">
 <defs>
  <style type="text/css">
   <![CDATA[
    .fil0 {fill:black;fill-rule:nonzero}
   ]]>
  </style>
 </defs>
 <g id="Слой_x0020_1">
  <metadata id="CorelCorpID_0Corel-Layer"/>
  <g id="_1870319065808">
   <path class="fil0" d="M3256.2 3833.79c306.84,0 555.45,-590.79 555.45,-1319.62 0,-728.64 -248.61,-1319.44 -555.45,-1319.44 -306.8,0 -555.54,590.8 -555.54,1319.44 0,728.83 248.74,1319.62 555.54,1319.62z"/>
   <path class="fil0" d="M1363.95 3378.98c-7.85,-26.99 -15.32,-53.98 -22.56,-81.3 -1.16,-4.76 -2.62,-9.38 -3.84,-14.15 -15.5,-60.42 -29.36,-121.59 -41.36,-183.88 -73.64,-63.66 -290.82,-238.02 -499.94,-280.46 2.2,25.49 5.1,50.66 7.91,76.02 0.97,7.94 1.62,15.87 2.6,23.96 3.18,24.7 6.63,49.49 10.33,74 0.88,6.41 1.81,13.08 2.8,19.43 4.16,26.76 8.69,53.28 13.64,79.66 0.7,3.79 1.29,7.61 2.14,11.31 5.23,27.96 10.97,55.8 17.05,83.35 0.37,1.31 0.69,2.75 0.98,4.06 178.32,25.07 401.39,162.51 529.01,250.15 -3.6,-11.72 -7.09,-23.58 -10.6,-35.16 -2.75,-9.07 -5.46,-18.03 -8.16,-26.99z"/>
   <path class="fil0" d="M1544.93 676.37c-0.5,-0.15 -0.98,-0.29 -1.5,-0.39l1 0.76c0.13,0 0.31,-0.19 0.5,-0.37z"/>
   <path class="fil0" d="M1261.96 2158.17c0.33,-3.97 0.88,-7.72 1.44,-11.64 2.86,-23.81 5.84,-47.77 9.11,-71.3 1.31,-8.92 2.71,-17.74 4.02,-26.53 3.18,-20.68 6.25,-41.46 9.7,-62.05 4.45,-25.83 9.2,-51.41 14.25,-76.81 0.79,-4.03 1.45,-8.22 2.25,-12.34 6.2,-30.45 12.65,-60.74 19.74,-90.67 -37.77,-72.01 -149.56,-248.24 -349.19,-274.53 -8.92,22.26 -17.33,45.3 -25.73,68.17 -4.25,11.49 -8.41,23.07 -12.46,34.84 -6.17,17.84 -12.19,35.91 -18.08,54.12 -3.59,10.98 -7.23,21.9 -10.55,33.15 -6.02,19.47 -11.77,39.23 -17.37,59.16 -2.75,10.05 -5.61,20.14 -8.36,30.32 -5.75,21.24 -11.07,42.49 -16.39,64.06 -1.35,6.25 -2.99,12.32 -4.43,18.59 185.65,17.08 328.87,167.86 402.05,263.46z"/>
   <path class="fil0" d="M787.16 2677.74c1.02,25.87 2.89,51.47 4.53,77.09 189.53,32.83 380.84,164.75 487.87,249.37 -1.12,-7.15 -2.05,-14.3 -3.18,-21.43 -2.14,-14.11 -4.19,-28.08 -6.07,-42.36 -2.05,-14.39 -3.77,-28.63 -5.6,-43 -1.77,-14.62 -3.73,-29.28 -5.23,-44.04 -1.31,-10.98 -2.2,-22.23 -3.31,-33.35 -3.17,-32.58 -5.8,-65.41 -8.03,-98.38 -0.47,-8.22 -1.17,-16.48 -1.68,-24.7 -92.28,-102.08 -294.94,-291.43 -456.69,-316.65 -0.74,12.43 -1.17,25.22 -1.78,37.92 -0.92,19.9 -1.77,40.07 -2.38,60.05 -0.65,25.91 -1.22,51.92 -1.22,78.02 0,38.39 0.8,76.45 2.39,114.37 0.09,2.42 0.29,4.67 0.38,7.09z"/>
   <path class="fil0" d="M1396.11 4235.75c8.68,8.4 17.7,17.01 26.67,25.45 5.32,4.62 10.46,9.05 15.63,13.82 7.63,6.82 15.42,13.78 23.17,20.36 5.65,4.82 11.36,9.53 17.05,14.2 7.46,6.21 14.85,12.28 22.41,18.07 6.11,4.8 12.28,9.44 18.3,14.1 7.34,5.51 14.62,10.93 21.91,16.4 6.3,4.47 12.75,8.92 19.23,13.44 7.28,4.99 14.58,10.04 21.86,15.04 6.48,4.2 12.98,8.26 19.61,12.38 7.38,4.75 14.76,9.33 22.32,13.91 6.49,4.06 13.12,7.89 19.89,11.71 7.56,4.34 15.08,8.46 22.69,12.71 6.69,3.64 13.5,7.33 20.27,10.79 7.61,3.88 15.27,7.79 22.98,11.49 6.87,3.31 13.63,6.52 20.54,9.7 7.8,3.55 15.55,7.05 23.49,10.38 6.95,3.03 13.73,5.83 20.64,8.63 7.94,3.17 15.98,6.35 24.18,9.29 2.16,0.85 4.36,1.55 6.45,2.38l193.74 0c-7.46,-7.79 -15.27,-15.41 -22.64,-23.53 -4.01,-4.44 -289.18,-193.88 -628.72,-289.75 12.19,13.08 24.7,25.97 37.32,38.25 3.49,3.64 7.24,7.04 11.01,10.78z"/>
   <path class="fil0" d="M1773.37 802.25c4.3,-5.79 8.68,-11.53 12.93,-17.46 8.55,-11.81 17.23,-23.68 26.01,-35.49 6.59,-8.68 13.17,-17.05 19.71,-25.64 9.25,-11.99 18.36,-24 27.78,-35.76 8.08,-10.23 16.53,-20.45 24.89,-30.59 7.94,-9.52 15.73,-19.24 23.68,-28.62 15.27,-18.03 30.59,-35.69 46.36,-52.96 1.45,-1.72 3,-3.49 4.49,-5.18 -7.75,1.35 -15.41,3.46 -22.88,5.18 -15.6,3.32 -31.24,6.54 -46.61,10.6 -3.83,0.98 -7.47,1.92 -11.25,2.9 -20.36,5.69 -40.35,12.18 -60.37,19.19 -6.82,2.48 -13.69,4.86 -20.51,7.38 -17.32,6.48 -34.78,13.59 -51.83,21.2 -9.43,4.2 -18.9,8.63 -28.34,13.12 -11.95,5.65 -23.81,11.62 -35.67,17.88 -6.87,3.64 -13.54,7.15 -20.18,10.98 46.13,39.82 85.55,87.56 111.79,123.27z"/>
   <path class="fil0" d="M1498.47 1283.92c1.77,-4.29 4.02,-8.41 5.98,-12.66 14.85,-32.83 29.93,-65.51 45.95,-97.5 3.87,-7.74 8.03,-15.17 11.86,-22.78 14.66,-28.86 29.51,-57.71 44.96,-85.88 39.79,-72.05 82.43,-141.67 127.81,-208.45 -30.53,-43.14 -79.19,-103.1 -131.3,-144.33 -2.94,1.92 -5.75,3.88 -8.55,5.74 -17.24,11.02 -34.27,22.56 -51.04,34.75 -1.45,0.98 -2.89,2.09 -4.35,3.26 -15.13,10.88 -30.07,22.27 -44.87,34.09 -3.36,2.57 -6.58,5.46 -9.9,8.13 -12.6,10.22 -25.26,20.77 -37.82,31.85 -4.95,4.25 -9.9,8.87 -14.85,13.25 -10.51,9.62 -21.02,19.19 -31.51,29.18 -6.08,6.17 -12.47,12.38 -18.68,18.46 -8.64,8.86 -17.47,17.6 -26.16,26.65 -7.24,7.67 -14.39,15.47 -21.61,23.35 -7.34,8.08 -14.76,16.17 -21.91,24.37 -7.94,9.02 -15.78,18.22 -23.48,27.51 -6.45,7.66 -12.71,15.22 -18.92,22.98 -8.12,10.08 -16.25,20.12 -24.09,30.59 -3.08,3.97 -6.03,7.83 -9.01,11.8 126.69,46.37 214.19,153.07 261.49,225.64z"/>
   <path class="fil0" d="M1343.9 1721.69c5.01,-18.07 10.24,-35.86 15.37,-53.61 1.82,-6.39 3.55,-12.97 5.56,-19.23 7.98,-27.6 16.39,-54.73 25.35,-81.91 2.53,-7.61 4.77,-15.22 7.2,-22.78 8.54,-25.27 17.5,-50.25 26.47,-75.13 7.34,-19.99 14.9,-39.7 22.65,-59.26 6.95,-18.36 14.06,-36.56 21.43,-54.68 -34.23,-59.59 -127.29,-198.46 -270.74,-242.73 -14.15,20.37 -27.88,41.56 -41.42,62.76 -7.61,12.05 -15.22,24.09 -22.74,36.32 -10.32,17 -20.36,34.33 -30.31,51.99 -6.25,10.88 -12.69,21.94 -18.81,33.47 -10.6,19.62 -21.26,39.88 -31.34,60.24 -4.99,9.72 -9.85,19.43 -14.66,29.23 -10.84,22.51 -21.24,45.29 -31.53,68.46 -2.56,5.93 -5.32,11.76 -7.79,17.93 172.5,30.39 285.68,158.91 345.31,248.93z"/>
   <path class="fil0" d="M966.98 3722.19c-0.37,-0.98 -0.8,-1.82 -1.35,-2.71 -1.83,-0.09 -3.42,0 -5.14,-0.09l6.49 2.8z"/>
   <path class="fil0" d="M1539.79 1356.2l-4.19 1.88c-60,142.37 -149.1,458.04 -149.1,458.04 -53.94,225.91 -82.7,460.74 -82.7,698.05 0,52.86 4.86,164.74 4.86,164.74 7.09,131.31 49.26,406.53 49.26,406.53 27.27,143.5 65.33,283.55 112.73,418.96 6.2,15.46 7.09,19.06 7.09,19.06 57.71,161.1 128.55,315.37 212.88,460.09 13.55,17.33 245.16,362.87 395.33,516.45l323.56 0c-124.96,-128.59 -235.78,-271.63 -332.43,-425.67 0,0 -2.33,-4.68 -7.33,-11.96 -69.57,-112.2 -131.07,-230.26 -184.49,-353.35 0,0 0,0 -7.89,-18.07 -59.45,-139.48 -108.34,-284.98 -145.75,-434.92 0,0 -59.95,-285.55 -74.1,-424.33 0,0 -16.68,-216.9 -16.68,-317.53 0,-56.92 2.11,-113.71 5.14,-170.25 0,0 34.19,-348.59 52.35,-420.03 18.16,-71.36 89.46,-361.66 149.19,-513.33 0,0 136.12,-301.57 211.25,-425.3 0,0 22.71,-42.88 42.68,-68.98 78.97,-121.55 321.41,-393.64 325.81,-406.91 -177.59,-4.85 -372.92,54.26 -372.92,54.26l-48.38 49.04c-193.65,213.72 -351.25,465.27 -467.85,740.04 0.8,1.53 1.46,2.89 1.68,3.49z"/>
   <path class="fil0" d="M1240.9 2514.17c0,-44.32 0.98,-88.03 2.99,-131.83 1.68,-41.36 4.53,-82.65 7.89,-123.69 0.14,-1.68 0.14,-3.27 0.28,-4.99 -37.82,-58.28 -195.71,-281.72 -406.21,-296.53 -4.71,22.46 -8.96,45.07 -13.02,67.81 -1.87,9.66 -3.64,19.29 -5.29,29 -3.69,20.59 -6.76,41.13 -9.94,61.78 -1.4,9.1 -2.75,18.01 -4.21,27.12 -2.89,21.3 -5.55,42.73 -7.98,64.21 -1.07,8.96 -2.23,17.88 -3.12,26.9 -2.34,21.39 -4.4,42.63 -6.13,64.11 -0.65,6.45 -1.16,12.84 -1.77,19.38 166.99,23.63 350.36,185.66 447.82,283.92 -0.89,-28.91 -1.31,-58.01 -1.31,-87.19z"/>
   <path class="fil0" d="M1100.25 3845.43c14.52,25.73 29.37,50.8 44.59,75.36 3.84,6.21 7.85,12.14 11.82,18.26 16.57,25.91 33.57,51.41 51.13,75.92 2.52,3.55 5.14,7.1 7.71,10.65 18.95,26.24 38.61,52.07 58.69,76.73 0.18,0.22 0.47,0.55 0.79,0.92 243.29,53.33 454.83,160.74 584.12,237.09 -3.03,-3.66 -5.88,-7.48 -8.72,-11.16 -7.57,-9.59 -14.85,-19.2 -22.33,-28.87 -17.33,-22.65 -34.33,-45.48 -51.18,-68.83 -6.02,-8.35 -12.04,-16.61 -18.02,-25.13 -40.39,-57.52 -78.92,-116.82 -115.15,-178.19 -97.18,-64.43 -388.89,-249.59 -604.16,-297.77 14.95,30.91 30.68,60.74 46.98,90.32 4.39,8.2 9.01,16.51 13.73,24.7z"/>
   <path class="fil0" d="M992.62 3625.95c5.13,11.86 10.22,23.68 15.41,35.49 184.26,27.55 423.57,159.6 570.71,250.38 -5.42,-10.22 -10.46,-21.1 -15.88,-31.52 -6.2,-12.13 -12.28,-24.23 -18.3,-36.56 -11.49,-23.62 -22.87,-47.4 -33.86,-71.45 -4.9,-10.73 -10.03,-21.39 -14.84,-32.31 -15.22,-34.23 -29.75,-68.74 -43.71,-103.89 -2.9,-7.39 -5.42,-14.95 -8.4,-22.56 -9.16,-23.44 -18.22,-46.84 -26.81,-70.79 -121.97,-90.83 -366.94,-249.55 -547.7,-285.5 6.22,24.52 13.17,48.52 19.89,72.71 4.49,16.06 9.02,32.13 13.78,47.87 5.42,18.2 11.4,36.32 17.24,54.2 5.54,16.86 11.01,33.81 16.85,50.58 5.65,15.96 11.54,31.57 17.42,47.44 6.72,17.93 13.59,36.19 20.59,53.98 5.79,14.11 11.77,28.06 17.61,41.93z"/>
   <path class="fil0" d="M2086.65 1061c-42.07,72.32 -80.69,147.65 -116.42,225.07 319.59,-238.43 591.51,-213.17 635.59,-207.14 61.64,-124.73 131.49,-241.84 207.6,-351.39 -149.93,15.08 -472.75,66.08 -664.33,231.05 -1.68,2.56 -3.23,5.09 -4.77,7.66l0.1 0c-18.96,29.23 -37.27,59.35 -54.83,89.65 -0.98,1.64 -2.05,3.32 -2.94,5.1z"/>
   <path class="fil0" d="M1842.25 1613.79c-0.7,2.38 -1.46,4.85 -2.1,7 -10.24,32.45 -19.71,65.04 -28.86,98.05 -2.11,7.8 -4.21,15.74 -6.41,23.5 -3.25,12.93 -6.48,26.14 -9.7,39.22 118.38,-119.3 331.17,-272.85 635.05,-261.45 41.38,-132.57 90.78,-259.49 147.16,-380.53 -80.89,-4.89 -359.29,1.13 -662.39,272.98 -26.57,65.71 -50.99,132.58 -72.75,201.23z"/>
   <path class="fil0" d="M1717.95 2233.02c111.92,-121.88 328.91,-304.23 608.39,-278.31 21.52,-127.39 50.1,-251.55 84.94,-371.7 -352.17,-5.14 -573.61,234.83 -646.36,328.88 -21.3,104.74 -37.03,211.99 -46.97,321.13z"/>
   <path class="fil0" d="M2384.1 649.6c-13.59,15.5 -27.13,31.11 -40.53,46.89 -8.55,10.18 -17.14,20.69 -25.64,31.05 -12.65,15.55 -25.25,31.2 -37.53,47.16 -7.28,9.53 -14.71,18.83 -21.91,28.34 -3.18,4.21 -6.06,8.5 -9.11,12.62 230.4,-121.59 517.96,-149.62 612.29,-155.73 21.34,-28.63 111.74,-127.39 120.8,-146.68 -229.57,-27.13 -484.39,-4.15 -484.39,-4.15 -31.75,35.48 -76.15,98.62 -91.33,115.05 -7.66,8.37 -14.98,17.05 -22.65,25.45z"/>
   <path class="fil0" d="M3268.67 885.23c412.78,0 747.59,732.8 747.59,1636.97 0,904.03 -334.81,1636.83 -747.59,1636.83 -412.99,0 -747.66,-732.8 -747.66,-1636.83 0,-904.17 334.67,-1636.97 747.66,-1636.97zm-920.52 1731.25c16.21,703.8 239.6,1362.77 628.76,1854.94 7.79,9.91 15.79,19.01 23.62,28.58l348.31 0c484.24,-70.36 866.77,-925.13 866.77,-1969.95 0,-993.55 -400.51,-1790.41 -805.46,-1935.22 -179.13,-75.46 -353.81,-72.66 -353.81,-72.66 -426.06,498.39 -726.97,1284.33 -708.19,2094.31z"/>
   <path class="fil0" d="M1705.7 2417.18c-0.04,1.44 -0.22,2.99 -0.22,4.34 -1.08,30.83 -1.68,61.59 -1.68,92.65 0,42.54 1.01,84.8 2.93,126.96 0.24,9.2 0.98,18.36 1.41,27.6 1.16,21.85 2.75,43.19 4.34,64.73 110.06,-143.59 342.19,-397.49 568.75,-334.72 4.91,-129.82 16.86,-257.2 35.49,-381.65 -304.83,-25.16 -536.35,233.76 -607.33,323.89 -1.49,25.31 -2.66,50.75 -3.69,76.2z"/>
   <path class="fil0" d="M1733.68 2938.12c3.31,22.79 6.54,45.67 10.31,68.46 1.32,8.17 2.96,16.2 4.21,24.24 4.16,23.72 8.36,47.25 13.17,70.73 1.35,7.06 2.85,13.88 4.25,20.79 2.76,13.21 5.84,26.19 8.54,39.22 87.28,-132.24 275.6,-360.31 517.21,-322.77 -6.21,-72.97 -10.84,-146.57 -12.47,-220.72 -1.17,-51.61 -1.07,-103.02 0,-154.15 -226.15,-78.96 -486.01,262.11 -558.67,365.77 1.63,15.09 3.5,30.12 5.37,45.01 2.29,21.21 5.18,42.31 8.08,63.42z"/>
   <path class="fil0" d="M2205.87 4154.96c19.88,28.3 40.24,56.18 61.17,83.55 9.01,11.72 18.4,23.11 27.69,34.64 14.15,17.85 28.34,35.73 42.95,53.1 10.7,12.74 21.63,24.99 32.64,37.49 10.09,11.35 20.18,22.89 30.36,34.09 46.93,-94.46 145.78,-259.72 266.21,-272.42 -65.88,-120.85 -123.88,-247.86 -173.52,-379.64 -216.95,2.8 -321.78,223.48 -354.33,309.31 19.9,31.11 40.07,61.92 61.09,91.95 1.81,2.8 3.86,5.18 5.74,7.93z"/>
   <path class="fil0" d="M2911.81 4500c-78.63,-100.77 -150.17,-208.26 -214.94,-321.45l-1.86 9.72c-94.57,-17.38 -200.75,159.92 -248.1,259.16 17.05,17.79 34.23,35.48 51.84,52.57l413.06 0z"/>
   <path class="fil0" d="M2029.46 3865.27c11.99,23.07 24.27,45.76 36.93,68.18 3.6,6.15 7.24,12.56 10.69,18.86 6.96,11.99 14.19,23.85 21.3,35.82 49.3,-109.75 162.03,-289.62 372.58,-304.23 -41.84,-118.38 -77.01,-240.25 -105.44,-365.31 -251.46,-36.09 -383.43,266.68 -420.78,370.26 24.33,55.94 50.43,110.62 78.22,164.23 2.05,4.06 4.34,8.22 6.5,12.19z"/>
   <path class="fil0" d="M1831.89 3381.97c5.45,17.98 10.88,36.28 16.75,54.26 4.95,15.07 10.18,30.02 15.37,44.96 5.93,17.05 11.81,34.09 17.98,51.04 5.46,14.76 11.1,29.32 16.66,43.9 3.93,9.9 7.85,19.93 11.82,29.74 61.31,-138.96 200.7,-371.74 440.71,-352.45 -23.72,-114.22 -41.78,-231.01 -54.07,-349.62 -247.35,-51.32 -444.96,246.69 -502.63,344.85 4.62,18.07 9.42,35.77 14.33,53.47 7.24,26.71 15.04,53.46 23.08,79.85z"/>
  </g>
 </g>
</svg>
