<?xml version="1.0" encoding="iso-8859-1"?>
<!-- Generator: Adobe Illustrator 19.0.0, SVG Export Plug-In . SVG Version: 6.00 Build 0)  -->
<svg version="1.1" id="Layer_1" xmlns="http://www.w3.org/2000/svg" xmlns:xlink="http://www.w3.org/1999/xlink" x="0px" y="0px"
	 viewBox="0 0 512.273 512.273" style="enable-background:new 0 0 512.273 512.273;" xml:space="preserve">
<g transform="translate(1 1)">
	<g>
		<g>
			<path d="M198.483,41.939h-34.133c-13.653,0-25.6,11.947-25.6,25.6v8.533c0,13.653,11.947,25.6,25.6,25.6h34.133
				c13.653,0,25.6-11.947,25.6-25.6v-8.533C224.083,53.886,212.136,41.939,198.483,41.939z M207.016,76.073
				c0,4.267-4.267,8.533-8.533,8.533h-34.133c-4.267,0-8.533-4.267-8.533-8.533v-8.533c0-4.267,4.267-8.533,8.533-8.533h34.133
				c4.267,0,8.533,4.267,8.533,8.533V76.073z"/>
			<path d="M407.549,419.113l-13.653-46.08c-0.853-2.56-3.413-5.12-5.973-5.973l-7.68-2.56l5.12-5.973
				c1.707-1.707,2.56-5.12,1.707-7.68l-36.24-120.799l1.253-0.374c26.453-7.68,41.813-35.84,34.133-63.147L346.963,35.113
				c-7.68-26.453-35.84-41.813-63.147-34.133l-35.21,10.488c-8.937-7.592-20.482-12.195-33.056-12.195h-68.267
				c-28.16,0-51.2,23.04-51.2,51.2v136.533c0,28.16,23.04,51.2,51.2,51.2v68.267c0,3.413,1.707,5.973,3.413,6.827l15.36,10.24
				l-15.36,10.24c-1.707,1.707-3.413,4.267-3.413,6.827v65.707c0,2.56,1.707,5.12,4.267,6.827l5.973,4.267l-6.827,5.12
				c-1.707,1.707-3.413,4.267-3.413,6.827v5.12c0,23.893,6.827,47.787,18.773,68.267c3.413,5.12,9.387,8.533,15.36,8.533
				s11.947-3.413,14.507-8.533c12.8-21.333,19.627-44.373,19.627-68.267v-48.64c0-2.56-0.853-5.12-3.413-6.827l-6.827-4.267
				l6.827-4.267c1.707-1.707,3.413-4.267,3.413-6.827v-125.44c6.418,0,12.565-1.208,18.24-3.39
				c9.593,10.822,23.402,17.043,37.227,17.043c4.528,0,9.055-0.67,13.583-2.005l19.697,65.151c0.853,2.56,3.413,5.12,5.973,5.973
				l17.067,5.12l-11.093,13.653c-1.707,1.707-2.56,5.12-1.707,7.68l18.773,63.147c0.853,2.56,3.413,5.12,5.973,5.973l7.68,2.56
				l-5.12,5.973c-1.707,1.707-2.56,5.12-1.707,7.68l1.707,5.12c5.973,21.333,20.48,42.667,39.253,60.587
				c3.413,2.56,7.68,4.267,11.947,4.267c1.707,0,3.413,0,5.973,0.853c5.973-1.707,10.24-6.827,11.947-12.8
				C416.083,468.606,415.229,444.713,407.549,419.113z M284.669,63.273c1.707,0,4.267,0,5.973,0.853
				c1.707,0.853,2.56,2.56,3.413,4.267l2.56,9.387c0,1.707,0,4.267-0.853,5.973c-0.853,1.707-2.56,2.56-4.267,3.413l-24.747,7.68
				V68.393L284.669,63.273z M198.483,359.379l-13.653,8.533c-1.707,1.707-3.413,3.413-3.413,6.827s1.707,5.973,3.413,7.68
				l13.653,8.533v43.52c0,20.48-5.973,40.96-17.067,59.733l7.68,4.267l-8.533-4.267c-10.24-17.92-16.213-38.4-16.213-59.733v-0.853
				l13.653-9.387c1.707-1.707,3.413-4.267,3.413-6.827s-1.707-5.12-4.267-6.827l-12.8-8.533v-56.32l22.187-15.36
				c1.707-1.707,3.413-4.267,3.413-6.827s-1.707-5.12-3.413-6.827l-22.187-14.507v-64h34.133V359.379z M207.016,221.139h-51.2
				h-8.533c-18.773,0-34.133-15.36-34.133-34.133V50.473c0-18.773,15.36-34.133,34.133-34.133h68.267
				c18.773,0,34.133,15.36,34.133,34.133v7.625c-0.542,1.11-0.853,2.288-0.853,3.468v44.373c0,1.124,0.34,2.243,0.853,3.294v77.772
				c0,18.773-15.36,34.133-34.133,34.133H207.016z M248.829,226.259c3.853-3.557,7.177-7.533,9.893-11.842
				c1.683-2.636,3.132-5.432,4.317-8.363c0.004-0.011,0.008-0.021,0.013-0.032c0.319-0.79,0.617-1.589,0.897-2.398
				c0.039-0.113,0.078-0.227,0.116-0.341c0.236-0.698,0.457-1.401,0.663-2.112c0.059-0.203,0.117-0.406,0.174-0.61
				c0.172-0.622,0.331-1.25,0.48-1.881c0.065-0.274,0.131-0.548,0.191-0.823c0.125-0.572,0.235-1.148,0.34-1.727
				c0.059-0.322,0.121-0.643,0.174-0.967c0.09-0.555,0.163-1.114,0.234-1.674c0.044-0.341,0.094-0.68,0.131-1.023
				c0.064-0.594,0.107-1.193,0.15-1.792c0.022-0.308,0.054-0.613,0.071-0.922c0.049-0.909,0.076-1.824,0.076-2.744V111.23
				l29.013-8.704c5.973-1.707,11.093-5.973,14.507-11.947c2.56-5.973,3.413-12.8,1.707-18.773l-2.56-9.387
				c-1.707-5.973-5.973-11.093-11.947-14.507c-5.973-2.56-12.8-3.413-18.773-1.707l-11.962,3.418
				c-0.008-0.38-0.018-0.759-0.035-1.138c-0.221-5.717-1.391-11.199-3.357-16.297c-0.77-2.206-1.634-4.367-2.565-6.463l28.16-8.533
				c17.92-5.12,36.693,5.12,41.813,23.04l39.253,132.267c5.12,17.92-5.12,36.693-23.04,41.813l-7.422,2.217
				c-0.615,0.011-1.256,0.107-1.965,0.343l-49.493,14.507c-1.429,0.238-2.65,0.817-3.644,1.609l-3.183,0.951
				C269.309,237.353,257.363,233.939,248.829,226.259z M393.043,485.673h-0.853c-17.067-15.36-29.013-34.133-34.987-53.76
				l10.24-11.093c1.707-1.707,2.56-5.12,1.707-7.68s-3.413-5.12-5.973-5.973l-15.36-5.12l-16.213-53.76l17.067-20.48
				c1.707-1.707,2.56-5.12,1.707-7.68s-3.413-5.12-5.973-5.973l-24.747-7.68l-17.92-61.44l32.427-9.387l34.133,115.2l-10.24,11.947
				c-1.707,1.707-2.56,5.12-1.707,7.68c0.853,2.56,3.413,5.12,5.973,5.973l15.36,5.12l11.947,41.813
				C396.456,446.419,398.163,466.899,393.043,485.673z"/>
		</g>
	</g>
</g>
<g>
</g>
<g>
</g>
<g>
</g>
<g>
</g>
<g>
</g>
<g>
</g>
<g>
</g>
<g>
</g>
<g>
</g>
<g>
</g>
<g>
</g>
<g>
</g>
<g>
</g>
<g>
</g>
<g>
</g>
</svg>
