<?xml version="1.0" encoding="iso-8859-1"?>
<!-- Generator: Adobe Illustrator 19.0.0, SVG Export Plug-In . SVG Version: 6.00 Build 0)  -->
<svg version="1.1" id="Layer_1" xmlns="http://www.w3.org/2000/svg" xmlns:xlink="http://www.w3.org/1999/xlink" x="0px" y="0px"
	 viewBox="0 0 512.853 512.853" style="enable-background:new 0 0 512.853 512.853;" xml:space="preserve">
<g transform="translate(1 1)">
	<g>
		<g>
			<path d="M447,429.933c-7.795-5.846-15.591-10.208-23.763-14.217c1.542-3.57,2.429-7.476,2.429-11.383
				c0-7.68-2.56-15.36-8.533-20.48c-9.454-8.193-17.512-14.52-25.892-19.333c1.287-3.561,1.999-7.355,1.999-11.387
				c0-7.68-2.56-15.36-6.827-20.48c-10.24-11.947-20.48-19.627-32.427-25.6c-0.853,0-0.853,0-0.853,0
				c-13.239-7.009-30.755-11.881-51.874-15.274l-1.033-10.326c-1.707-15.36-14.507-27.307-29.867-27.307h-5.973v-119.17
				c33.555-4.235,59.733-33.054,59.733-67.71C324.12,29.72,293.4-1,255.853-1c-37.547,0-68.267,30.72-68.267,68.267
				c0,34.656,26.178,63.475,59.733,67.71v119.17h-6.827c-15.36,0-28.16,11.947-29.867,27.307l-1.061,10.607
				c-20.346,3.38-37.263,8.176-50.139,14.993c-0.853,0-0.853,0-0.853,0c-11.947,5.973-22.187,14.507-32.427,26.453
				c-4.267,5.973-6.827,12.8-6.827,20.48c0,3.732,0.609,7.259,1.72,10.49c-8.899,4.709-17.331,10.907-27.32,20.23
				c-5.12,5.12-8.533,12.8-8.533,20.48c0,3.327,0.482,6.652,1.512,9.771c-7.838,3.795-15.344,8.496-22.846,14.122
				c-7.68,5.973-12.8,15.36-12.8,24.747c0,9.387,4.267,18.773,12.8,24.747C92.867,499.907,127,511,164.547,511
				c0.853,0,0.853,0,0.853,0.853h180.053c38.4,0,72.533-11.093,101.547-32.427c7.68-5.973,12.8-15.36,12.8-24.747
				S455.533,435.907,447,429.933z M204.653,67.267c0-28.16,23.04-51.2,51.2-51.2s51.2,23.04,51.2,51.2c0,28.16-23.04,51.2-51.2,51.2
				S204.653,95.427,204.653,67.267z M241.347,272.067L241.347,272.067l29.867,0c6.827,0,11.947,5.12,12.8,11.947l4.249,42.487
				c-0.089,3.949-0.973,7.145-3.395,9.567c-2.56,2.56-5.973,4.267-9.387,4.267h-38.4c-3.413,0-6.827-1.707-9.387-4.267
				c-2.399-3.199-3.289-6.398-3.392-9.596l4.246-42.457C229.4,277.187,234.52,272.067,241.347,272.067z M138.947,344.6
				c8.533-10.24,17.067-16.213,26.453-21.333c0.853,0,0.853,0,1.707-0.853c10.012-5.006,24.111-10.006,40.686-12.619l-1.433,14.325
				c-0.853,8.533,1.707,17.067,7.68,23.04c5.973,6.827,13.653,10.24,22.187,10.24h0.853h37.547h0.853
				c8.533,0,16.213-4.267,22.187-10.24s8.533-14.507,7.68-23.04l-1.707-14.507c17.067,2.56,31.573,7.68,41.813,12.8
				c0,0.853,0,0.853,0.853,0.853c9.387,5.12,17.067,11.093,25.6,21.333c1.707,2.56,2.56,5.973,2.56,9.387
				c0,3.413-0.853,6.826-2.56,9.386c0,0,0,0,0,0c-6.24,7.627-13.184,13.845-20.604,18.541c-2.283,1.445-4.611,2.745-6.977,3.899
				c-2.366,1.153-4.771,2.159-7.207,3.014c-1.218,0.427-2.444,0.817-3.677,1.169c-1.233,0.352-2.473,0.665-3.72,0.94
				c-4.363,0.962-8.802,1.452-13.282,1.452H194.413c-20.48,0-40.107-10.24-55.467-29.013c-1.707-2.56-2.56-5.973-2.56-9.387
				C136.387,350.573,137.24,347.16,138.947,344.6z M106.52,395.8c8.385-7.546,15.945-13.435,23.492-17.686
				c18.138,20.09,40.526,30.486,64.402,30.486h122.88c0.762,0,1.523-0.012,2.284-0.034c0.208-0.006,0.417-0.019,0.625-0.027
				c0.554-0.021,1.107-0.042,1.66-0.075c0.24-0.014,0.479-0.036,0.719-0.052c0.523-0.036,1.045-0.072,1.567-0.118
				c0.245-0.022,0.49-0.05,0.734-0.074c0.516-0.051,1.032-0.102,1.547-0.163c0.249-0.03,0.498-0.065,0.746-0.097
				c0.509-0.065,1.017-0.131,1.525-0.207c0.261-0.039,0.522-0.083,0.783-0.125c0.491-0.078,0.982-0.157,1.472-0.244
				c0.282-0.05,0.563-0.106,0.845-0.159c0.464-0.088,0.927-0.177,1.389-0.273c0.313-0.065,0.626-0.135,0.938-0.204
				c0.423-0.093,0.846-0.187,1.267-0.288c0.357-0.085,0.712-0.174,1.068-0.264c0.366-0.092,0.732-0.185,1.097-0.283
				c0.415-0.111,0.83-0.227,1.245-0.344c0.291-0.083,0.582-0.166,0.872-0.252c0.492-0.145,0.982-0.296,1.473-0.451
				c0.192-0.061,0.384-0.122,0.576-0.184c0.594-0.192,1.186-0.392,1.778-0.598c0.058-0.02,0.116-0.041,0.174-0.061
				c13.853-4.864,27.099-13.574,38.764-25.976c7.582,4.234,15.174,9.33,23.598,17.754c1.707,2.56,3.413,5.12,3.413,8.533
				c0,3.413-0.853,6.827-3.413,8.533c-19.627,18.773-46.08,29.013-72.533,29.013H179.053c-26.453,0-52.053-10.24-72.533-29.013
				c-1.707-2.56-3.413-5.12-3.413-8.533C103.107,400.92,103.96,397.507,106.52,395.8z M437.613,464.92
				c-26.453,19.627-57.173,29.013-91.307,29.013H165.4c-34.133,0-64.853-9.387-91.307-29.013c-3.413-2.56-5.973-6.827-5.973-11.093
				s2.56-8.533,5.973-11.093c7.68-5.12,15.36-10.24,23.04-13.653c2.443,2.081,4.946,4.059,7.5,5.945
				c20.461,15.597,44.978,24.158,70.743,24.741c0.94,0.022,1.881,0.033,2.824,0.033h155.307c29.867,0,58.027-10.24,81.067-30.72
				c8.533,3.413,15.36,7.68,23.04,13.653c3.413,2.56,5.973,6.827,5.973,11.093S441.88,462.36,437.613,464.92z"/>
			<path d="M264.387,75.8v17.067c0,5.12,3.413,8.533,8.533,8.533s8.533-3.413,8.533-8.533v-51.2c0-5.12-3.413-8.533-8.533-8.533
				s-8.533,3.413-8.533,8.533v17.067H247.32V41.667c0-5.12-3.413-8.533-8.533-8.533c-5.12,0-8.533,3.413-8.533,8.533v51.2
				c0,5.12,3.413,8.533,8.533,8.533c5.12,0,8.533-3.413,8.533-8.533V75.8H264.387z"/>
		</g>
	</g>
</g>
<g>
</g>
<g>
</g>
<g>
</g>
<g>
</g>
<g>
</g>
<g>
</g>
<g>
</g>
<g>
</g>
<g>
</g>
<g>
</g>
<g>
</g>
<g>
</g>
<g>
</g>
<g>
</g>
<g>
</g>
</svg>
