<?xml version="1.0" encoding="iso-8859-1"?>
<!-- Generator: Adobe Illustrator 19.0.0, SVG Export Plug-In . SVG Version: 6.00 Build 0)  -->
<svg version="1.1" id="Capa_1" xmlns="http://www.w3.org/2000/svg" xmlns:xlink="http://www.w3.org/1999/xlink" x="0px" y="0px"
	 viewBox="0 0 480 480" style="enable-background:new 0 0 480 480;" xml:space="preserve">
<g>
	<g>
		<path d="M240,72c-92.633,0-168,75.367-168,168s75.367,168,168,168v-16c-5.405,0-10.739-0.307-16-0.86v-58.289
			c0-3.648-2.469-6.836-6.008-7.75c-8.352-2.148-16.336-5.523-23.727-10.031c-3.141-1.922-7.211-1.453-9.82,1.172l-41.035,41.035
			c-7.538-6.22-14.468-13.149-20.688-20.688l41.035-41.035c2.617-2.609,3.094-6.672,1.172-9.828
			c-4.5-7.359-7.875-15.344-10.031-23.719c-0.914-3.539-4.102-6.008-7.75-6.008H88.86c-0.553-5.261-0.86-10.595-0.86-16
			s0.307-10.739,0.86-16h58.289c3.648,0,6.836-2.469,7.75-6.008c2.156-8.375,5.531-16.359,10.031-23.719
			c1.922-3.156,1.445-7.219-1.172-9.828l-41.035-41.035c6.22-7.538,13.149-14.468,20.688-20.688l41.035,41.035
			c1.539,1.547,3.594,2.344,5.656,2.344c1.438,0,2.883-0.383,4.172-1.172c7.359-4.5,15.344-7.875,23.719-10.031
			c3.539-0.914,6.008-4.102,6.008-7.75V88.86c5.261-0.553,10.595-0.86,16-0.86c24.055,0,47.07,5.461,68.398,16.219l7.203-14.281
			C292.023,78.031,266.586,72,240,72z M191.445,331.867c5.313,2.805,10.844,5.148,16.555,6.992v49.685
			c-18.683-4.022-36.084-11.484-51.537-21.694L191.445,331.867z M141.141,272c1.852,5.719,4.188,11.25,6.992,16.555l-34.982,34.982
			C102.94,308.084,95.478,290.683,91.456,272H141.141z M148.133,191.445c-2.805,5.305-5.141,10.836-6.992,16.555H91.456
			c4.022-18.683,11.484-36.084,21.694-51.537L148.133,191.445z M208,141.141c-5.719,1.852-11.25,4.188-16.555,6.992l-34.982-34.982
			c15.453-10.21,32.854-17.672,51.537-21.694V141.141z"/>
	</g>
</g>
<g>
	<g>
		<path d="M480,240C480,107.664,372.336,0,240,0S0,107.664,0,240s107.664,240,240,240c26.126,0,51.823-4.333,76.508-12.645
			C331.943,475.387,349.43,480,368,480c61.758,0,112-50.242,112-112c0-18.57-4.613-36.057-12.645-51.492
			C475.667,291.823,480,266.126,480,240z M368,464c-52.938,0-96-43.063-96-96s43.063-96,96-96s96,43.063,96,96S420.938,464,368,464z
			 M336,200h-16v-16h16V200z M352,257.278V112h32v145.278c-5.24-0.755-10.554-1.278-16-1.278S357.24,256.523,352,257.278z
			 M456.016,298.967c-14.13-17.977-33.581-31.545-56.016-38.25V104c0-4.422-3.578-8-8-8h-48c-4.422,0-8,3.578-8,8v64h-24
			c-4.422,0-8,3.578-8,8v32c0,4.422,3.578,8,8,8h24v44.717c-46.204,13.808-80,56.648-80,107.283
			c0,35.709,16.858,67.493,42.967,88.016c-16.622,4.538-33.683,7.032-50.967,7.646V448h-16v15.797
			c-36.101-1.276-70.054-11.098-99.877-27.559l10.534-15.801l-13.313-8.875l-10.941,16.412
			c-26.516-17.212-49.165-39.861-66.377-66.377l16.412-10.941l-8.875-13.313l-15.801,10.534
			C27.301,318.054,17.479,284.101,16.203,248H40v-16H16.203c1.276-36.101,11.098-70.054,27.559-99.877l15.801,10.534l8.875-13.313
			l-16.412-10.941c17.212-26.516,39.861-49.165,66.377-66.377l10.941,16.412l13.313-8.875l-10.534-15.801
			c29.823-16.46,63.776-26.283,99.877-27.559V32h16V16.203c36.101,1.276,70.054,11.098,99.877,27.559l-10.534,15.801l13.313,8.875
			l10.941-16.412C423.162,91.988,464,161.292,464,240C464,260.025,461.254,279.778,456.016,298.967z"/>
	</g>
</g>
<g>
	<g>
		<path d="M383.403,372.091c0.35-1.314,0.597-2.668,0.597-4.091c0-8.82-7.18-16-16-16c-1.422,0-2.777,0.247-4.091,0.597
			l-22.253-22.253l-11.313,11.313l22.253,22.253c-0.35,1.314-0.597,2.668-0.597,4.091c0,8.82,7.18,16,16,16
			c1.422,0,2.777-0.247,4.091-0.597l6.245,6.245l11.313-11.313L383.403,372.091z"/>
	</g>
</g>
<g>
	<g>
		<path d="M368,288c-44.109,0-80,35.891-80,80c0,22.727,9.719,44.461,26.664,59.625l10.672-11.922
			C311.773,403.57,304,386.18,304,368c0-35.289,28.711-64,64-64s64,28.711,64,64c0,18.18-7.773,35.57-21.336,47.703l10.672,11.922
			C438.281,412.461,448,390.727,448,368C448,323.891,412.109,288,368,288z"/>
	</g>
</g>
<g>
	<g>
		<path d="M240,208c-17.648,0-32,14.352-32,32s14.352,32,32,32s32-14.352,32-32S257.648,208,240,208z M240,256
			c-8.82,0-16-7.18-16-16s7.18-16,16-16s16,7.18,16,16S248.82,256,240,256z"/>
	</g>
</g>
<g>
</g>
<g>
</g>
<g>
</g>
<g>
</g>
<g>
</g>
<g>
</g>
<g>
</g>
<g>
</g>
<g>
</g>
<g>
</g>
<g>
</g>
<g>
</g>
<g>
</g>
<g>
</g>
<g>
</g>
</svg>
