<?xml version="1.0" encoding="iso-8859-1"?>
<!-- Generator: Adobe Illustrator 19.0.0, SVG Export Plug-In . SVG Version: 6.00 Build 0)  -->
<svg version="1.1" id="Capa_1" xmlns="http://www.w3.org/2000/svg" xmlns:xlink="http://www.w3.org/1999/xlink" x="0px" y="0px"
	 viewBox="0 0 480 480" style="enable-background:new 0 0 480 480;" xml:space="preserve">
<g>
	<g>
		<path d="M312,384c4.422,0,8-3.578,8-8v-56c0-4.422-3.578-8-8-8h-48v-32h24c4.422,0,8-3.578,8-8v-48c0-4.422-3.578-8-8-8h-32v16h24
			v32h-24c-4.422,0-8,3.578-8,8v48c0,4.422,3.578,8,8,8h48v40h-40c-4.422,0-8,3.578-8,8v56c0,4.422,3.578,8,8,8h40v24H96V232h32v-16
			H88c-4.422,0-8,3.578-8,8v248c0,4.422,3.578,8,8,8h224c4.422,0,8-3.578,8-8v-40c0-4.422-3.578-8-8-8h-40v-40H312z"/>
	</g>
</g>
<g>
	<g>
		<path d="M392,208h-48c-4.422,0-8,3.578-8,8v256c0,4.422,3.578,8,8,8h48c4.422,0,8-3.578,8-8V216C400,211.578,396.422,208,392,208z
			 M384,464h-32V224h32V464z"/>
	</g>
</g>
<g>
	<g>
		<rect x="360" y="240" width="16" height="16"/>
	</g>
</g>
<g>
	<g>
		<rect x="360" y="336" width="16" height="16"/>
	</g>
</g>
<g>
	<g>
		<rect x="360" y="288" width="16" height="16"/>
	</g>
</g>
<g>
	<g>
		<rect x="360" y="384" width="16" height="16"/>
	</g>
</g>
<g>
	<g>
		<rect x="360" y="432" width="16" height="16"/>
	</g>
</g>
<g>
	<g>
		<path d="M384,168H240v-8.406c0-6.313,3.727-12.055,9.5-14.617l43.5-19.328c11.539-5.133,19-16.609,19-29.242V88h8
			c13.234,0,24-10.766,24-24V48c0-13.234-10.766-24-24-24h-9.136C307.288,10.236,294.87,0,280,0H104C86.352,0,72,14.352,72,32
			v64.406c0,12.633,7.461,24.109,19,29.242l43.5,19.328c5.773,2.563,9.5,8.305,9.5,14.617V168H96c-30.875,0-56,25.125-56,56v256h16
			V224c0-22.055,17.945-40,40-40h48v144c0,17.648,14.352,32,32,32h32c17.648,0,32-14.352,32-32V184h144c22.055,0,40,17.945,40,40
			v256h16V224C440,193.125,414.875,168,384,168z M312,40h8c4.414,0,8,3.586,8,8v16c0,4.414-3.586,8-8,8h-8V40z M224,159.594V328
			c0,8.82-7.18,16-16,16h-32c-8.82,0-16-7.18-16-16V159.594c0-12.633-7.461-24.109-19-29.242l-43.5-19.328
			c-5.773-2.563-9.5-8.305-9.5-14.617V32c0-8.82,7.18-16,16-16h176c8.82,0,16,7.18,16,16v64.406c0,6.313-3.727,12.055-9.5,14.617
			L243,130.352C231.461,135.484,224,146.961,224,159.594z"/>
	</g>
</g>
<g>
</g>
<g>
</g>
<g>
</g>
<g>
</g>
<g>
</g>
<g>
</g>
<g>
</g>
<g>
</g>
<g>
</g>
<g>
</g>
<g>
</g>
<g>
</g>
<g>
</g>
<g>
</g>
<g>
</g>
</svg>
