<?xml version="1.0" encoding="UTF-8"?>
<!DOCTYPE svg PUBLIC "-//W3C//DTD SVG 1.1//EN" "http://www.w3.org/Graphics/SVG/1.1/DTD/svg11.dtd">
<!-- Creator: CorelDRAW 2017 -->
<svg xmlns="http://www.w3.org/2000/svg" xml:space="preserve" width="50mm" height="50mm" version="1.1" style="shape-rendering:geometricPrecision; text-rendering:geometricPrecision; image-rendering:optimizeQuality; fill-rule:evenodd; clip-rule:evenodd"
viewBox="0 0 5000 5000"
 xmlns:xlink="http://www.w3.org/1999/xlink">
 <defs>
  <style type="text/css">
   <![CDATA[
    .str0 {stroke:black;stroke-width:50;stroke-miterlimit:22.9256}
    .fil1 {fill:none}
    .fil0 {fill:black}
   ]]>
  </style>
 </defs>
 <g id="Слой_x0020_1">
  <metadata id="CorelCorpID_0Corel-Layer"/>
  <g id="_1870444051104">
   <path class="fil0" d="M829.06 1250l3341.88 0c180.99,0 329.06,148.08 329.06,329.07l0 1841.87c0,180.99 -148.07,329.06 -329.06,329.06l-3341.88 0c-180.99,0 -329.06,-148.07 -329.06,-329.06l0 -1841.87c0,-180.99 148.07,-329.07 329.06,-329.07zm73.67 100l3194.54 0c166.51,0 302.73,136.22 302.73,302.73l0 1694.54c0,166.51 -136.22,302.73 -302.73,302.73l-3194.54 0c-166.51,0 -302.73,-136.22 -302.73,-302.73l0 -1694.54c0,-166.51 136.22,-302.73 302.73,-302.73z"/>
   <line class="fil1 str0" x1="900" y1="1304.32" x2="900" y2= "3679.51" />
   <line class="fil1 str0" x1="2500" y1="1304.32" x2="2500" y2= "3679.51" />
   <line class="fil1 str0" x1="1300" y1="1304.32" x2="1300" y2= "3679.51" />
   <line class="fil1 str0" x1="1700.02" y1="1304.32" x2="1700.02" y2= "3679.51" />
   <line class="fil1 str0" x1="2100" y1="1304.32" x2="2100" y2= "3679.51" />
   <line class="fil1 str0" x1="1100" y1="1304.32" x2="1100" y2= "3679.51" />
   <line class="fil1 str0" x1="700" y1="1304.32" x2="700" y2= "3679.51" />
   <line class="fil1 str0" x1="1500" y1="1304.32" x2="1500" y2= "3679.51" />
   <line class="fil1 str0" x1="1900" y1="1304.32" x2="1900" y2= "3679.51" />
   <line class="fil1 str0" x1="2300" y1="1304.32" x2="2300" y2= "3679.51" />
   <line class="fil1 str0" x1="2900" y1="1304.32" x2="2900" y2= "3679.51" />
   <line class="fil1 str0" x1="3300" y1="1304.32" x2="3300" y2= "3679.51" />
   <line class="fil1 str0" x1="3700.02" y1="1304.32" x2="3700.02" y2= "3679.51" />
   <line class="fil1 str0" x1="4100" y1="1304.32" x2="4100" y2= "3679.51" />
   <line class="fil1 str0" x1="3100" y1="1304.32" x2="3100" y2= "3679.51" />
   <line class="fil1 str0" x1="2700" y1="1304.32" x2="2700" y2= "3679.51" />
   <line class="fil1 str0" x1="3500" y1="1304.32" x2="3500" y2= "3679.51" />
   <line class="fil1 str0" x1="3900" y1="1304.32" x2="3900" y2= "3679.51" />
   <line class="fil1 str0" x1="4300" y1="1304.32" x2="4300" y2= "3679.51" />
  </g>
 </g>
</svg>
