<?xml version="1.0" encoding="UTF-8"?>
<!DOCTYPE svg PUBLIC "-//W3C//DTD SVG 1.1//EN" "http://www.w3.org/Graphics/SVG/1.1/DTD/svg11.dtd">
<!-- Creator: CorelDRAW 2017 -->
<svg xmlns="http://www.w3.org/2000/svg" xml:space="preserve" width="50mm" height="50mm" version="1.1" style="shape-rendering:geometricPrecision; text-rendering:geometricPrecision; image-rendering:optimizeQuality; fill-rule:evenodd; clip-rule:evenodd"
viewBox="0 0 5000 5000"
 xmlns:xlink="http://www.w3.org/1999/xlink">
 <defs>
  <style type="text/css">
   <![CDATA[
    .str0 {stroke:white;stroke-width:7.62;stroke-miterlimit:22.9256}
    .fil1 {fill:black}
    .fil0 {fill:#FEFEFE}
    .fil2 {fill:white}
   ]]>
  </style>
 </defs>
 <g id="Слой_x0020_1">
  <metadata id="CorelCorpID_0Corel-Layer"/>
  <g id="_1870440103888">
   <path class="fil0" d="M2362.97 3944.15c-37.27,-57.97 -69.31,-66.42 -110.28,-107.02 -42.55,-42.15 -67.92,-71.84 -117.56,-96.74 -22.64,-34.37 -235.29,-214.31 -281.8,-255.4l-139.59 -128.88c-47.3,-46.21 -109.33,-75.11 -51.11,-185.14 63.29,1.41 208.8,55.12 269.83,73.8 87.08,26.66 171.43,54.34 260.28,83.36 91.78,29.98 174.4,50.43 263.22,80.42l269.79 84.58 111.08 -361.43c54.36,-155.29 185.18,-150.2 329.21,-141.65l257.73 -1.64c470.1,0 701.51,-52.27 936.88,212.15 145.42,163.35 192.32,439.69 66.57,662.44 -117.25,207.71 -309.83,307.24 -552.42,306.68l-1160.07 0.27c-94.19,0.87 -102.06,-0.83 -195.53,-94.41l-156.23 -131.39z"/>
   <path class="fil1" d="M1682.84 3211.3l1063.43 329.18 106.76 -328.29c46.08,-154.26 80.13,-186.31 259.31,-185.52 161.74,0.72 770.36,-9.67 878.72,7.6 523.64,83.41 632.54,764.19 205.26,1016.44 -208.24,122.93 -529.11,83.31 -794.03,83.31l-655.28 0.15c-146.35,0.75 -133.62,-26.77 -278.75,-157.74l-697.98 -622.88c-54.51,-49.17 -86.83,-36.57 -87.44,-142.25z"/>
   <path class="fil1" d="M2693.54 2451.48c0,397.25 -305.86,708.75 -644.32,708.75 -192.72,0 -338.98,-27.31 -486.05,-158.27l-80.77 -80.31c-43.68,-50.43 -61.55,-72.52 -95.67,-140.58 -112.89,-225.22 -88.38,-518.5 65.57,-722.47 120.82,-160.08 324.78,-292.24 562.37,-280.19 196.85,9.98 341.67,72.76 472.16,203.25 29.71,29.71 51.81,51.26 76.54,84.53 21.76,29.26 50.4,73.31 65.77,106.05 32.91,70.12 64.4,176.15 64.4,279.24z"/>
   <path class="fil1" d="M3649.28 2472.96l-730.23 0c0,-159.94 -27.84,-270.14 -87.87,-395.38 -140.32,-292.75 -442.52,-517.41 -814.18,-517.41l0 -730.23c490.43,0 850.58,181.27 1173.21,502.03 120.5,119.79 250.16,310.75 317.98,476.68 42.56,104.1 69.25,180.43 98.26,299.06 25.81,105.5 42.83,234.06 42.83,365.25z"/>
   <path class="fil1" d="M1501.55 3650.01c17.25,36.24 9.47,66.77 38.41,105.46 19.04,25.45 51.03,52.75 88.37,61.65 99.18,23.63 142.76,-45.03 184.64,-86.32 43.14,1.19 88.4,9.57 150.31,9.35 57.28,-0.21 114.58,-0.33 171.85,0.24l227.84 203.76c-51.41,1.06 -114.33,17.33 -169.18,26.44 -135.79,22.55 -393.77,5.22 -529.11,-28.49 -222.46,-55.41 -374.12,-128.62 -538.96,-244.97 -695.11,-490.65 -840.36,-1502.42 -287.51,-2177.45 187.61,-229.07 415.71,-387.01 699.57,-481.69 78.54,-26.2 233.98,-68.44 328.88,-68.44l0 236.25c-278.28,23.15 -581.11,187.27 -732.96,340.9 -193.09,195.34 -331.55,414.11 -379.42,705.18 -63.2,384.29 41.63,755.17 282.18,1040.54 65.65,77.88 121.98,133.92 202.6,194.73 91.03,68.66 247.51,149.52 262.49,162.86z"/>
   <path class="fil2" d="M3962.09 3986.03l0.03 -811.64c195.96,29.61 357.65,186.39 358.52,404.66 0.86,213.7 -167.09,382.65 -358.55,406.98z"/>
   <path class="fil1 str0" d="M1812.97 3730.8c-41.88,41.29 -85.46,109.95 -184.64,86.32 -37.34,-8.9 -69.33,-36.2 -88.37,-61.65 -28.94,-38.69 -21.16,-69.22 -38.41,-105.46 19.75,-109.49 75.72,-153 118.29,-242.63 15.09,-31.76 17.28,-56.65 42.79,-75.33 19.27,14.12 66.1,113.58 105.37,173.84 48.84,74.95 69.4,113.4 44.97,224.91zm-140.68 19.99c-79.05,27.72 -137.32,-63.4 -101.99,-124.23 55.62,-5.45 35.74,13.95 60.8,48.63 32.37,44.81 48.42,0.21 41.19,75.6z"/>
   <path class="fil2" d="M3687.71 3282.82c-126.52,-40.82 -476.67,70.12 -385.62,-124.77 69.91,-20.08 228.23,-11.29 315.09,-11.56 111.76,-0.37 183.61,21.68 199.49,124.61 11.62,75.35 27.15,248.49 -52.39,260.91 -107.73,16.82 -62.6,-167.11 -76.57,-249.19z"/>
   <path class="fil1" d="M3423.77 2988.41l-257.73 1.64c13.68,-63.05 96.65,-234.55 96.65,-366.75l236.25 0c0,72.43 -12.21,125.31 -27.85,186.92l-47.32 178.19z"/>
   <circle class="fil2" cx="2005.07" cy="2468.94" r="106.54"/>
   <circle class="fil2" cx="2282.84" cy="1202.1" r="106.54"/>
   <circle class="fil2" cx="3273.85" cy="2193.12" r="106.54"/>
  </g>
 </g>
</svg>
