<svg xmlns="http://www.w3.org/2000/svg" height="115pt" version="1.1" viewBox="-11 0 115 115.42865" width="115pt">
<g id="surface1">
<path d="M 31.386719 28.761719 C 31.050781 28.160156 30.289062 27.941406 29.691406 28.273438 C 29.484375 28.386719 29.316406 28.558594 29.203125 28.761719 L 2.734375 76.773438 C -1.082031 83.671875 -0.519531 93.601562 4.125 101.464844 C 7.203125 106.683594 14.703125 115.429688 30.285156 115.429688 C 45.875 115.429688 53.375 106.707031 56.445312 101.464844 C 61.105469 93.59375 61.667969 83.671875 57.859375 76.773438 Z M 54.320312 100.191406 C 51.5 104.953125 44.652344 112.9375 30.300781 112.9375 C 15.949219 112.9375 9.125 104.953125 6.269531 100.191406 C 2.058594 93.070312 1.511719 84.132812 4.910156 77.964844 L 30.300781 31.953125 L 55.675781 77.964844 C 59.105469 84.132812 58.527344 93.070312 54.320312 100.191406 Z M 54.320312 100.191406 " style=" stroke:none;fill-rule:nonzero;fill:rgb(0%,0%,0%);fill-opacity:1;" />
<path d="M 48.054688 85.117188 C 47.367188 85.117188 46.808594 85.675781 46.808594 86.363281 C 46.792969 95.472656 39.410156 102.855469 30.300781 102.871094 C 29.613281 102.871094 29.054688 103.429688 29.054688 104.117188 C 29.054688 104.804688 29.613281 105.363281 30.300781 105.363281 C 40.789062 105.347656 49.285156 96.851562 49.296875 86.363281 C 49.296875 85.675781 48.742188 85.117188 48.054688 85.117188 Z M 48.054688 85.117188 " style=" stroke:none;fill-rule:nonzero;fill:rgb(0%,0%,0%);fill-opacity:1;" />
<path d="M 73.3125 0.644531 C 72.984375 0.0390625 72.222656 -0.179688 71.621094 0.15625 C 71.417969 0.269531 71.25 0.4375 71.136719 0.644531 L 53.136719 33.292969 C 50.382812 38.175781 50.816406 44.929688 54.121094 50.476562 C 57.730469 56.640625 64.335938 60.203125 72.234375 60.203125 C 80.128906 60.203125 86.734375 56.667969 90.371094 50.511719 C 93.648438 44.96875 94.019531 38.214844 91.332031 33.332031 Z M 88.265625 49.230469 C 86.394531 52.390625 81.835938 57.699219 72.273438 57.699219 C 62.703125 57.699219 58.105469 52.367188 56.238281 49.203125 C 53.445312 44.46875 53.074219 38.566406 55.316406 34.492188 L 72.234375 3.832031 L 89.140625 34.492188 C 91.378906 38.566406 91.019531 44.484375 88.21875 49.203125 Z M 88.265625 49.230469 " style=" stroke:none;fill-rule:nonzero;fill:rgb(0%,0%,0%);fill-opacity:1;" />
<path d="M 84.304688 38.761719 C 83.617188 38.761719 83.058594 39.320312 83.058594 40.007812 C 83.050781 45.988281 78.210938 50.832031 72.234375 50.835938 C 71.542969 50.835938 70.988281 51.394531 70.988281 52.082031 C 70.988281 52.769531 71.542969 53.328125 72.234375 53.328125 C 79.582031 53.316406 85.542969 47.363281 85.550781 40.007812 C 85.550781 39.320312 84.992188 38.761719 84.304688 38.761719 Z M 84.304688 38.761719 " style=" stroke:none;fill-rule:nonzero;fill:rgb(0%,0%,0%);fill-opacity:1;" />
</g>
</svg>