<?xml version="1.0" encoding="UTF-8"?>
<!DOCTYPE svg PUBLIC "-//W3C//DTD SVG 1.1//EN" "http://www.w3.org/Graphics/SVG/1.1/DTD/svg11.dtd">
<!-- Creator: CorelDRAW 2017 -->
<svg xmlns="http://www.w3.org/2000/svg" xml:space="preserve" width="50mm" height="50mm" version="1.1" style="shape-rendering:geometricPrecision; text-rendering:geometricPrecision; image-rendering:optimizeQuality; fill-rule:evenodd; clip-rule:evenodd"
viewBox="0 0 5000 5000"
 xmlns:xlink="http://www.w3.org/1999/xlink">
 <defs>
  <style type="text/css">
   <![CDATA[
    .fil0 {fill:black}
   ]]>
  </style>
 </defs>
 <g id="Слой_x0020_1">
  <metadata id="CorelCorpID_0Corel-Layer"/>
  <g id="_1834028402336">
   <path class="fil0" d="M2317.76 502.23c-326.38,9.5 -651.52,67.69 -931.7,167.95 -751.12,268.78 -588.66,749.27 295.61,948.36 588.17,132.43 1369.27,118.74 1932.95,-86.6 1029.97,-375.2 312.88,-1076.53 -1296.86,-1029.71zm55.04 314.55c-154.73,10.72 -306.49,37.36 -438.25,90.66 -460.76,186.38 -62.6,526.91 698.88,478.22 153.48,-9.81 302.27,-36.41 432.26,-90.91 489.57,-205.26 4.37,-526.31 -692.89,-477.97z"/>
   <path class="fil0" d="M4088.22 3878.56c-21.03,18.36 -32.78,32.59 -58.85,58.55 -49.77,49.55 -161.55,118.14 -230.15,151.93 -113.62,55.97 -242.15,101.31 -377.84,135.71 -640.29,162.34 -1613.63,156.85 -2212.45,-132.39 -180.42,-87.14 -186.38,-118.39 -295.84,-213.86 -29.54,258.6 378.99,424.12 608.92,494.16 557.31,169.77 1400,169.79 1957.36,0 229.07,-69.78 639.54,-236.22 608.85,-494.1z"/>
   <path class="fil0" d="M4088.4 1334.7c-507.32,524.42 -1828.37,523.3 -2500.07,348 -299.69,-78.21 -505.69,-174.76 -675.46,-348.06 -26.46,256.47 379.29,429.49 609.67,493.87 610.23,170.55 1346.03,170.6 1956.29,-0.01 229,-64.02 637.76,-238.2 609.57,-493.8z"/>
   <path class="fil0" d="M2025.76 4218.26l205.41 23.65c2.52,-97.87 12.29,-2142.46 -5.16,-2211.19l-200.95 -16.89 0.7 2204.43z"/>
   <path class="fil0" d="M2775.2 2031.16c-16.89,69.22 -7.64,2112.67 -5.13,2209.46l201.97 -19.29 3.69 -2206.53 -200.53 16.36z"/>
   <polygon class="fil0" points="3142.17,1991.69 3141.72,4196.49 3346.43,4157.5 3348.12,1949.64 "/>
   <path class="fil0" d="M1281.28 4017.19c23,45.47 159.34,79.49 205.34,90.94l1.04 -2204.04 -205.44 -68.8 -0.94 2181.9z"/>
   <path class="fil0" d="M1653.34 4157.71l203.23 40.68 3.18 -2191.98c-15.09,-28.28 15.6,-10.19 -39.59,-25.07 -10.28,-2.77 -38.67,-5.92 -51.43,-8.12 -37.95,-6.54 -75.12,-15.36 -115.84,-22.6l0.45 2207.09z"/>
   <path class="fil0" d="M1114.98 3938.14l1.15 -2195.83c-81.66,-29.43 -137.69,-98.19 -202.86,-155.86 -15.56,113.27 -3.56,1652.1 -3.57,1907.94 0,104.56 -13.03,202.89 38.64,285.43 34.1,54.47 108.9,132.51 166.64,158.32z"/>
   <polygon class="fil0" points="3515.01,1907.15 3513.29,4107.73 3718.59,4036.99 3720.57,1835.21 "/>
   <polygon class="fil0" points="2397.3,4247.91 2602.61,4247.77 2603.96,2039.68 2400.15,2039.74 "/>
   <path class="fil0" d="M3885.22 1805.33c0.03,683.74 -10.93,1459.28 1.12,2131.73 92.75,-44.65 205.31,-159.35 205.3,-311.97l-2.66 -2038.78c-78.67,67.56 -76.12,78.4 -169.26,139.82 -45.16,29.78 -34.5,16.87 -34.5,79.2z"/>
  </g>
 </g>
</svg>
