<?xml version="1.0" encoding="iso-8859-1"?>
<!-- Generator: Adobe Illustrator 19.0.0, SVG Export Plug-In . SVG Version: 6.00 Build 0)  -->
<svg version="1.1" id="Capa_1" xmlns="http://www.w3.org/2000/svg" xmlns:xlink="http://www.w3.org/1999/xlink" x="0px" y="0px"
	 viewBox="0 0 512 512" style="enable-background:new 0 0 512 512;" xml:space="preserve">
<g>
	<g>
		<path d="M391,362V60h-60V0H181v60h-60v302H76v30h135v120h90V392h135v-30H391z M211,30h90v30h-90V30z M181,362h-30V150h30V362z
			 M271,482h-30v-30h30V482z M211,362V150h30v212H211z M271,422h-30v-30h30V422z M301,362h-30V150h30V362z M361,362h-30V150h30V362z
			 M361,120H151V90h210V120z"/>
	</g>
</g>
<g>
</g>
<g>
</g>
<g>
</g>
<g>
</g>
<g>
</g>
<g>
</g>
<g>
</g>
<g>
</g>
<g>
</g>
<g>
</g>
<g>
</g>
<g>
</g>
<g>
</g>
<g>
</g>
<g>
</g>
</svg>
