<?xml version="1.0" encoding="UTF-8"?>
<!DOCTYPE svg PUBLIC "-//W3C//DTD SVG 1.1//EN" "http://www.w3.org/Graphics/SVG/1.1/DTD/svg11.dtd">
<!-- Creator: CorelDRAW 2017 -->
<svg xmlns="http://www.w3.org/2000/svg" xml:space="preserve" width="50mm" height="50mm" version="1.1" style="shape-rendering:geometricPrecision; text-rendering:geometricPrecision; image-rendering:optimizeQuality; fill-rule:evenodd; clip-rule:evenodd"
viewBox="0 0 5000 5000"
 xmlns:xlink="http://www.w3.org/1999/xlink">
 <defs>
  <style type="text/css">
   <![CDATA[
    .fil0 {fill:black;fill-rule:nonzero}
   ]]>
  </style>
 </defs>
 <g id="Слой_x0020_1">
  <metadata id="CorelCorpID_0Corel-Layer"/>
  <g id="_1870439062624">
   <g>
    <g>
     <path class="fil0" d="M1863.36 3863.21c169.24,0 306.36,-325.85 306.36,-727.85 0,-401.89 -137.12,-727.75 -306.36,-727.75 -169.22,0 -306.42,325.86 -306.42,727.75 0,402 137.2,727.85 306.42,727.85z"/>
     <path class="fil0" d="M819.67 3612.36c-4.33,-14.89 -8.45,-29.77 -12.45,-44.84 -0.64,-2.63 -1.44,-5.18 -2.11,-7.81 -8.55,-33.33 -16.2,-67.06 -22.82,-101.42 -40.61,-35.11 -160.4,-131.28 -275.74,-154.69 1.21,14.06 2.81,27.94 4.36,41.93 0.54,4.38 0.9,8.75 1.44,13.21 1.75,13.63 3.65,27.3 5.69,40.82 0.49,3.54 1,7.22 1.55,10.72 2.29,14.75 4.79,29.39 7.52,43.94 0.38,2.08 0.71,4.19 1.18,6.23 2.88,15.43 6.05,30.78 9.4,45.97 0.21,0.73 0.38,1.52 0.54,2.25 98.36,13.82 221.39,89.63 291.79,137.97 -1.99,-6.47 -3.92,-13.01 -5.85,-19.39 -1.52,-5.01 -3.02,-9.95 -4.5,-14.89z"/>
     <path class="fil0" d="M919.49 2121.7c-0.28,-0.08 -0.54,-0.16 -0.83,-0.21l0.55 0.42c0.07,0 0.18,-0.11 0.28,-0.21z"/>
     <path class="fil0" d="M763.41 2939.01c0.19,-2.19 0.49,-4.26 0.8,-6.42 1.58,-13.14 3.22,-26.35 5.02,-39.33 0.72,-4.92 1.5,-9.78 2.22,-14.63 1.75,-11.41 3.45,-22.87 5.35,-34.23 2.46,-14.24 5.08,-28.35 7.86,-42.36 0.44,-2.22 0.8,-4.54 1.24,-6.81 3.42,-16.79 6.98,-33.5 10.89,-50.01 -20.83,-39.72 -82.49,-136.92 -192.6,-151.42 -4.92,12.28 -9.56,24.98 -14.19,37.6 -2.35,6.34 -4.64,12.73 -6.87,19.22 -3.41,9.84 -6.73,19.8 -9.98,29.85 -1.97,6.05 -3.98,12.07 -5.81,18.28 -3.33,10.74 -6.5,21.64 -9.58,32.64 -1.52,5.54 -3.1,11.1 -4.62,16.71 -3.17,11.72 -6.1,23.44 -9.04,35.34 -0.74,3.45 -1.65,6.8 -2.44,10.25 102.4,9.43 181.39,92.59 221.75,145.32z"/>
     <path class="fil0" d="M501.53 3225.58c0.57,14.27 1.59,28.39 2.5,42.52 104.54,18.11 210.06,90.87 269.09,137.54 -0.62,-3.94 -1.13,-7.88 -1.75,-11.82 -1.18,-7.78 -2.31,-15.48 -3.35,-23.36 -1.13,-7.93 -2.08,-15.79 -3.09,-23.72 -0.98,-8.06 -2.06,-16.15 -2.88,-24.29 -0.73,-6.05 -1.21,-12.26 -1.83,-18.39 -1.75,-17.97 -3.2,-36.08 -4.43,-54.27 -0.25,-4.53 -0.64,-9.09 -0.93,-13.62 -50.89,-56.3 -162.67,-160.74 -251.89,-174.65 -0.41,6.86 -0.64,13.91 -0.98,20.92 -0.51,10.97 -0.98,22.1 -1.31,33.11 -0.36,14.3 -0.67,28.64 -0.67,43.04 0,21.17 0.44,42.16 1.31,63.08 0.05,1.34 0.16,2.58 0.21,3.91z"/>
     <path class="fil0" d="M837.41 4084.92c4.79,4.63 9.76,9.38 14.71,14.04 2.93,2.55 5.76,4.99 8.62,7.62 4.2,3.76 8.5,7.6 12.78,11.23 3.11,2.66 6.26,5.25 9.4,7.83 4.12,3.43 8.19,6.78 12.36,9.97 3.37,2.65 6.77,5.2 10.1,7.77 4.04,3.05 8.06,6.03 12.08,9.05 3.47,2.47 7.03,4.92 10.61,7.42 4.01,2.75 8.04,5.53 12.05,8.29 3.58,2.31 7.16,4.56 10.82,6.83 4.07,2.62 8.14,5.14 12.31,7.67 3.58,2.24 7.24,4.35 10.97,6.46 4.17,2.4 8.32,4.67 12.52,7.01 3.68,2.01 7.44,4.04 11.17,5.95 4.2,2.14 8.43,4.3 12.68,6.34 3.79,1.82 7.52,3.6 11.33,5.35 4.3,1.95 8.58,3.89 12.96,5.72 3.83,1.67 7.57,3.22 11.38,4.76 4.38,1.75 8.81,3.51 13.34,5.13 1.19,0.46 2.4,0.85 3.55,1.31l106.87 0c-4.12,-4.3 -8.43,-8.5 -12.5,-12.98 -2.21,-2.45 -159.5,-106.93 -346.77,-159.81 6.72,7.21 13.62,14.32 20.58,21.1 1.93,2 4,3.88 6.08,5.94z"/>
     <path class="fil0" d="M1045.49 2191.13c2.37,-3.19 4.79,-6.36 7.13,-9.63 4.72,-6.51 9.5,-13.06 14.35,-19.57 3.63,-4.79 7.26,-9.4 10.87,-14.14 5.1,-6.62 10.12,-13.24 15.32,-19.73 4.45,-5.64 9.12,-11.28 13.73,-16.87 4.38,-5.25 8.68,-10.61 13.06,-15.79 8.42,-9.94 16.87,-19.68 25.57,-29.21 0.8,-0.94 1.65,-1.92 2.48,-2.85 -4.28,0.74 -8.5,1.91 -12.63,2.85 -8.6,1.84 -17.23,3.61 -25.7,5.85 -2.11,0.54 -4.12,1.06 -6.21,1.6 -11.23,3.14 -22.25,6.72 -33.3,10.59 -3.76,1.36 -7.55,2.68 -11.31,4.06 -9.55,3.58 -19.18,7.5 -28.59,11.7 -5.19,2.31 -10.42,4.76 -15.63,7.23 -6.59,3.12 -13.13,6.41 -19.67,9.87 -3.79,2.01 -7.47,3.94 -11.13,6.05 25.44,21.97 47.19,48.3 61.66,67.99z"/>
     <path class="fil0" d="M893.86 2456.8c0.98,-2.36 2.22,-4.63 3.3,-6.98 8.19,-18.1 16.51,-36.13 25.34,-53.78 2.14,-4.27 4.44,-8.36 6.55,-12.56 8.09,-15.92 16.28,-31.83 24.8,-47.37 21.94,-39.74 45.46,-78.14 70.49,-114.97 -16.84,-23.79 -43.68,-56.87 -72.42,-79.61 -1.62,1.06 -3.17,2.14 -4.72,3.17 -9.5,6.07 -18.9,12.44 -28.15,19.16 -0.79,0.54 -1.59,1.16 -2.39,1.8 -8.35,6 -16.59,12.29 -24.75,18.81 -1.86,1.41 -3.63,3.01 -5.46,4.48 -6.95,5.64 -13.93,11.45 -20.86,17.57 -2.73,2.34 -5.46,4.89 -8.19,7.3 -5.8,5.31 -11.6,10.59 -17.39,16.1 -3.35,3.4 -6.87,6.83 -10.3,10.18 -4.77,4.89 -9.64,9.71 -14.43,14.7 -3.99,4.23 -7.93,8.53 -11.92,12.88 -4.04,4.46 -8.14,8.92 -12.08,13.44 -4.38,4.97 -8.7,10.05 -12.95,15.17 -3.56,4.23 -7.01,8.4 -10.43,12.68 -4.49,5.56 -8.97,11.1 -13.29,16.87 -1.7,2.19 -3.33,4.32 -4.97,6.51 69.87,25.58 118.14,84.43 144.22,124.45z"/>
     <path class="fil0" d="M808.61 2698.26c2.76,-9.96 5.65,-19.78 8.48,-29.57 1,-3.52 1.95,-7.15 3.06,-10.6 4.41,-15.23 9.04,-30.19 13.99,-45.18 1.39,-4.2 2.62,-8.4 3.97,-12.57 4.71,-13.93 9.65,-27.71 14.6,-41.44 4.04,-11.02 8.21,-21.89 12.49,-32.68 3.83,-10.13 7.75,-20.17 11.82,-30.16 -18.88,-32.87 -70.21,-109.46 -149.33,-133.88 -7.8,11.23 -15.38,22.92 -22.84,34.62 -4.2,6.64 -8.4,13.28 -12.55,20.03 -5.69,9.37 -11.23,18.93 -16.72,28.67 -3.44,6 -7,12.1 -10.37,18.46 -5.85,10.82 -11.73,22 -17.29,33.23 -2.75,5.36 -5.43,10.72 -8.08,16.12 -5.98,12.42 -11.72,24.98 -17.39,37.76 -1.42,3.27 -2.94,6.49 -4.3,9.89 95.14,16.77 157.57,87.65 190.46,137.3z"/>
     <path class="fil0" d="M600.71 3801.66c-0.2,-0.54 -0.43,-1.01 -0.74,-1.5 -1.01,-0.05 -1.88,0 -2.83,-0.05l3.57 1.55z"/>
     <path class="fil0" d="M916.66 2496.67l-2.32 1.04c-33.09,78.53 -82.23,252.64 -82.23,252.64 -29.75,124.6 -45.62,254.12 -45.62,385.01 0,29.16 2.68,90.87 2.68,90.87 3.91,72.42 27.17,224.23 27.17,224.23 15.04,79.14 36.03,156.39 62.18,231.07 3.42,8.53 3.91,10.52 3.91,10.52 31.83,88.86 70.91,173.95 117.42,253.77 7.47,9.55 135.22,200.14 218.04,284.85l178.46 0c-68.91,-70.93 -130.04,-149.82 -183.35,-234.79 0,0 -1.28,-2.57 -4.04,-6.59 -38.37,-61.89 -72.29,-127 -101.76,-194.89 0,0 0,0 -4.35,-9.97 -32.79,-76.93 -59.76,-157.18 -80.39,-239.89 0,0 -33.07,-157.49 -40.87,-234.04 0,0 -9.2,-119.63 -9.2,-175.14 0,-31.39 1.16,-62.71 2.83,-93.9 0,0 18.86,-192.27 28.88,-231.67 10.01,-39.36 49.34,-199.48 82.29,-283.13 0,0 75.08,-166.34 116.52,-234.59 0,0 12.52,-23.64 23.53,-38.04 43.56,-67.04 177.28,-217.12 179.71,-224.43 -97.95,-2.68 -205.69,29.92 -205.69,29.92l-26.68 27.05c-106.81,117.88 -193.74,256.62 -258.05,408.17 0.44,0.85 0.8,1.6 0.93,1.93z"/>
     <path class="fil0" d="M751.8 3135.36c0,-24.44 0.54,-48.55 1.65,-72.71 0.92,-22.81 2.49,-45.58 4.35,-68.22 0.08,-0.93 0.08,-1.81 0.15,-2.76 -20.86,-32.14 -107.94,-155.38 -224.05,-163.55 -2.59,12.39 -4.94,24.86 -7.18,37.4 -1.03,5.33 -2.01,10.64 -2.91,16 -2.04,11.35 -3.73,22.68 -5.49,34.07 -0.77,5.02 -1.51,9.94 -2.32,14.96 -1.6,11.75 -3.06,23.57 -4.4,35.42 -0.59,4.94 -1.23,9.86 -1.72,14.83 -1.29,11.8 -2.43,23.52 -3.38,35.37 -0.36,3.55 -0.64,7.08 -0.98,10.69 92.11,13.03 193.24,102.4 247,156.59 -0.49,-15.94 -0.72,-31.99 -0.72,-48.09z"/>
     <path class="fil0" d="M674.22 3869.63c8.01,14.19 16.2,28.02 24.6,41.57 2.11,3.43 4.32,6.7 6.51,10.07 9.15,14.3 18.52,28.36 28.21,41.88 1.38,1.95 2.83,3.91 4.25,5.87 10.45,14.48 21.29,28.72 32.37,42.32 0.1,0.12 0.26,0.31 0.44,0.51 134.19,29.42 250.86,88.66 322.17,130.77 -1.67,-2.02 -3.24,-4.13 -4.81,-6.16 -4.17,-5.28 -8.19,-10.58 -12.31,-15.92 -9.56,-12.49 -18.94,-25.09 -28.23,-37.97 -3.32,-4.6 -6.64,-9.16 -9.94,-13.85 -22.28,-31.73 -43.53,-64.44 -63.51,-98.29 -53.6,-35.54 -214.5,-137.66 -333.23,-164.23 8.24,17.04 16.92,33.5 25.91,49.81 2.42,4.52 4.97,9.11 7.57,13.62z"/>
     <path class="fil0" d="M614.86 3748.58c2.83,6.54 5.63,13.06 8.49,19.57 101.64,15.2 233.63,88.03 314.79,138.1 -2.99,-5.63 -5.77,-11.63 -8.76,-17.38 -3.42,-6.7 -6.77,-13.37 -10.1,-20.17 -6.33,-13.03 -12.61,-26.14 -18.67,-39.41 -2.7,-5.92 -5.53,-11.79 -8.19,-17.82 -8.39,-18.88 -16.41,-37.91 -24.1,-57.3 -1.6,-4.07 -3,-8.24 -4.64,-12.44 -5.05,-12.93 -10.04,-25.84 -14.78,-39.05 -67.28,-50.09 -202.39,-137.64 -302.09,-157.47 3.43,13.52 7.26,26.76 10.97,40.11 2.47,8.85 4.97,17.72 7.6,26.4 2.98,10.03 6.28,20.03 9.5,29.89 3.06,9.3 6.08,18.65 9.3,27.9 3.12,8.8 6.36,17.41 9.61,26.17 3.7,9.89 7.49,19.96 11.36,29.77 3.19,7.78 6.49,15.48 9.71,23.13z"/>
     <path class="fil0" d="M1218.28 2333.85c-23.2,39.89 -44.5,81.44 -64.21,124.14 176.27,-131.51 326.25,-117.58 350.56,-114.25 34,-68.79 72.53,-133.39 114.51,-193.81 -82.7,8.31 -260.75,36.44 -366.42,127.43 -0.93,1.42 -1.78,2.81 -2.63,4.23l0.05 0c-10.45,16.12 -20.55,32.74 -30.24,49.45 -0.54,0.9 -1.13,1.83 -1.62,2.81z"/>
     <path class="fil0" d="M1083.48 2638.75c-0.39,1.31 -0.8,2.67 -1.16,3.86 -5.64,17.9 -10.87,35.87 -15.92,54.08 -1.16,4.3 -2.32,8.68 -3.53,12.96 -1.8,7.13 -3.58,14.42 -5.35,21.63 65.29,-65.8 182.66,-150.49 350.27,-144.2 22.82,-73.12 50.07,-143.13 81.16,-209.89 -44.61,-2.7 -198.16,0.62 -365.35,150.57 -14.65,36.24 -28.12,73.12 -40.12,110.99z"/>
     <path class="fil0" d="M1014.92 2980.29c61.73,-67.22 181.42,-167.8 335.56,-153.51 11.88,-70.26 27.64,-138.74 46.85,-205.01 -194.24,-2.83 -316.38,129.52 -356.5,181.4 -11.75,57.77 -20.43,116.93 -25.91,177.12z"/>
     <path class="fil0" d="M1382.34 2106.94c-7.49,8.55 -14.96,17.16 -22.35,25.86 -4.72,5.61 -9.45,11.41 -14.14,17.13 -6.98,8.58 -13.93,17.21 -20.71,26.01 -4.01,5.26 -8.11,10.38 -12.08,15.63 -1.75,2.32 -3.34,4.69 -5.02,6.96 127.07,-67.07 285.68,-82.52 337.71,-85.9 11.77,-15.79 61.63,-70.26 66.63,-80.9 -126.62,-14.96 -267.17,-2.29 -267.17,-2.29 -17.51,19.58 -42,54.4 -50.37,63.46 -4.23,4.61 -8.27,9.4 -12.5,14.04z"/>
     <path class="fil0" d="M1870.23 2236.9c227.68,0 412.35,404.19 412.35,902.89 0,498.63 -184.67,902.81 -412.35,902.81 -227.78,0 -412.37,-404.18 -412.37,-902.81 0,-498.7 184.59,-902.89 412.37,-902.89zm-507.71 954.9c8.93,388.18 132.15,751.64 346.79,1023.11 4.3,5.46 8.71,10.48 13.03,15.76l192.12 0c267.08,-38.81 478.07,-510.27 478.07,-1086.55 0,-548 -220.9,-987.52 -444.26,-1067.39 -98.8,-41.62 -195.15,-40.07 -195.15,-40.07 -235,274.89 -400.96,708.38 -390.6,1155.14z"/>
     <path class="fil0" d="M1008.16 3081.87c-0.02,0.79 -0.12,1.65 -0.12,2.39 -0.59,17.01 -0.93,33.97 -0.93,51.1 0,23.47 0.57,46.78 1.62,70.03 0.14,5.07 0.54,10.13 0.78,15.22 0.64,12.06 1.52,23.82 2.39,35.7 60.71,-79.2 188.74,-219.23 313.7,-184.61 2.71,-71.61 9.3,-141.86 19.58,-210.51 -168.13,-13.88 -295.83,128.94 -334.98,178.65 -0.82,13.96 -1.47,27.99 -2.04,42.03z"/>
     <path class="fil0" d="M1023.6 3369.2c1.82,12.57 3.6,25.19 5.69,37.76 0.72,4.5 1.62,8.93 2.32,13.37 2.29,13.08 4.6,26.06 7.26,39.01 0.75,3.89 1.57,7.65 2.35,11.46 1.51,7.29 3.21,14.45 4.7,21.64 48.15,-72.94 152.01,-198.73 285.28,-178.03 -3.43,-40.25 -5.98,-80.84 -6.88,-121.74 -0.64,-28.46 -0.59,-56.82 0,-85.02 -124.74,-43.55 -268.07,144.57 -308.14,201.74 0.9,8.32 1.93,16.62 2.96,24.83 1.26,11.7 2.86,23.33 4.46,34.98z"/>
     <path class="fil0" d="M1284.04 4040.36c10.97,15.61 22.19,30.99 33.74,46.08 4.97,6.46 10.14,12.75 15.27,19.11 7.8,9.84 15.63,19.7 23.69,29.28 5.9,7.03 11.93,13.79 18,20.69 5.57,6.25 11.13,12.62 16.75,18.8 25.88,-52.1 80.41,-143.25 146.83,-150.26 -36.34,-66.66 -68.33,-136.71 -95.71,-209.4 -119.66,1.55 -177.48,123.27 -195.43,170.61 10.97,17.16 22.1,34.15 33.69,50.72 1,1.54 2.13,2.85 3.17,4.37z"/>
     <path class="fil0" d="M1673.41 4230.67c-43.37,-55.58 -82.83,-114.87 -118.55,-177.3l-1.03 5.36c-52.16,-9.59 -110.73,88.21 -136.84,142.94 9.4,9.81 18.88,19.58 28.59,29l227.83 0z"/>
     <path class="fil0" d="M1186.73 3880.58c6.62,12.72 13.39,25.23 20.37,37.6 1.99,3.4 4,6.93 5.9,10.41 3.84,6.61 7.83,13.15 11.75,19.75 27.2,-60.53 89.37,-159.74 205.5,-167.8 -23.08,-65.29 -42.47,-132.51 -58.16,-201.49 -138.69,-19.91 -211.48,147.09 -232.08,204.22 13.42,30.85 27.82,61.01 43.14,90.58 1.13,2.24 2.39,4.54 3.58,6.73z"/>
     <path class="fil0" d="M1077.76 3614.01c3.01,9.91 6,20.01 9.25,29.92 2.73,8.32 5.61,16.56 8.47,24.81 3.27,9.4 6.51,18.8 9.92,28.15 3.01,8.14 6.12,16.17 9.19,24.21 2.17,5.46 4.33,10.99 6.52,16.4 33.81,-76.64 110.69,-205.03 243.08,-194.4 -13.09,-63 -23.05,-127.41 -29.83,-192.83 -136.43,-28.31 -245.42,136.06 -277.23,190.2 2.55,9.97 5.2,19.73 7.91,29.49 3.99,14.74 8.29,29.49 12.72,44.05z"/>
    </g>
    <path class="fil0" d="M786.48 1706.37l1147.54 0 0 83.25 458.52 -239.81 -458.52 -239.81 0 83.25 -1147.54 0 0 313.12zm573.77 0m573.77 41.63m229.26 -78.28m0 -239.81m-229.26 -78.29m-573.77 41.63m-573.77 156.56"/>
   </g>
   <g>
    <g>
     <path class="fil0" d="M3970.82 1136.79c169.24,0 306.36,325.85 306.36,727.85 0,401.89 -137.12,727.75 -306.36,727.75 -169.22,0 -306.41,-325.86 -306.41,-727.75 0,-402 137.19,-727.85 306.41,-727.85z"/>
     <path class="fil0" d="M2927.13 1387.64c-4.33,14.89 -8.45,29.77 -12.44,44.84 -0.64,2.63 -1.45,5.18 -2.12,7.81 -8.55,33.33 -16.19,67.06 -22.81,101.42 -40.62,35.11 -160.41,131.28 -275.75,154.69 1.21,-14.06 2.81,-27.94 4.36,-41.93 0.54,-4.38 0.9,-8.75 1.44,-13.21 1.75,-13.63 3.66,-27.3 5.69,-40.82 0.49,-3.54 1,-7.22 1.55,-10.72 2.29,-14.75 4.79,-29.39 7.52,-43.94 0.39,-2.08 0.72,-4.19 1.18,-6.23 2.89,-15.43 6.06,-30.78 9.41,-45.97 0.2,-0.73 0.38,-1.52 0.54,-2.25 98.35,-13.82 221.39,-89.63 291.78,-137.97 -1.98,6.46 -3.91,13.01 -5.85,19.39 -1.52,5.01 -3.01,9.95 -4.5,14.89z"/>
     <path class="fil0" d="M3026.95 2878.3c-0.28,0.08 -0.54,0.16 -0.82,0.21l0.54 -0.42c0.08,0 0.18,0.11 0.28,0.21z"/>
     <path class="fil0" d="M2870.88 2060.99c0.18,2.19 0.49,4.26 0.79,6.42 1.58,13.14 3.22,26.35 5.02,39.33 0.73,4.92 1.5,9.78 2.22,14.63 1.76,11.41 3.45,22.87 5.36,34.23 2.45,14.24 5.07,28.35 7.85,42.36 0.44,2.22 0.8,4.54 1.24,6.81 3.43,16.79 6.98,33.5 10.9,50.01 -20.84,39.72 -82.5,136.92 -192.61,151.42 -4.92,-12.28 -9.55,-24.99 -14.19,-37.6 -2.34,-6.34 -4.64,-12.73 -6.87,-19.22 -3.4,-9.84 -6.72,-19.8 -9.97,-29.85 -1.98,-6.05 -3.99,-12.08 -5.82,-18.28 -3.32,-10.74 -6.49,-21.64 -9.58,-32.64 -1.52,-5.54 -3.1,-11.1 -4.61,-16.71 -3.17,-11.72 -6.11,-23.44 -9.04,-35.34 -0.75,-3.45 -1.65,-6.8 -2.45,-10.25 102.4,-9.43 181.4,-92.59 221.76,-145.32z"/>
     <path class="fil0" d="M2609 1774.42c0.56,-14.27 1.59,-28.39 2.49,-42.52 104.54,-18.11 210.06,-90.87 269.1,-137.54 -0.62,3.94 -1.14,7.88 -1.76,11.82 -1.18,7.78 -2.31,15.48 -3.35,23.36 -1.13,7.93 -2.08,15.79 -3.09,23.72 -0.97,8.06 -2.05,16.15 -2.88,24.29 -0.72,6.05 -1.21,12.26 -1.82,18.39 -1.76,17.97 -3.2,36.08 -4.44,54.27 -0.25,4.53 -0.64,9.09 -0.92,13.62 -50.9,56.3 -162.68,160.74 -251.9,174.65 -0.4,-6.86 -0.64,-13.91 -0.97,-20.92 -0.51,-10.97 -0.98,-22.1 -1.32,-33.11 -0.36,-14.3 -0.67,-28.64 -0.67,-43.04 0,-21.17 0.44,-42.16 1.31,-63.08 0.06,-1.34 0.17,-2.58 0.22,-3.91z"/>
     <path class="fil0" d="M2944.87 915.08c4.79,-4.63 9.76,-9.38 14.71,-14.04 2.94,-2.55 5.77,-4.99 8.62,-7.62 4.21,-3.76 8.51,-7.6 12.78,-11.23 3.12,-2.66 6.26,-5.25 9.4,-7.83 4.12,-3.43 8.19,-6.78 12.36,-9.97 3.38,-2.65 6.78,-5.2 10.1,-7.77 4.04,-3.05 8.06,-6.03 12.08,-9.05 3.48,-2.47 7.03,-4.92 10.61,-7.42 4.02,-2.75 8.04,-5.53 12.05,-8.29 3.58,-2.31 7.17,-4.56 10.82,-6.83 4.07,-2.62 8.14,-5.14 12.31,-7.67 3.58,-2.24 7.24,-4.35 10.98,-6.46 4.17,-2.4 8.31,-4.67 12.51,-7.01 3.69,-2.01 7.45,-4.04 11.18,-5.95 4.2,-2.14 8.42,-4.3 12.67,-6.34 3.79,-1.82 7.52,-3.6 11.33,-5.35 4.3,-1.95 8.58,-3.89 12.96,-5.72 3.83,-1.67 7.57,-3.22 11.38,-4.76 4.38,-1.75 8.82,-3.51 13.34,-5.13 1.19,-0.46 2.4,-0.85 3.56,-1.31l106.86 0c-4.12,4.3 -8.43,8.5 -12.49,12.98 -2.21,2.45 -159.5,106.93 -346.78,159.81 6.73,-7.21 13.63,-14.32 20.59,-21.1 1.92,-2 3.99,-3.88 6.07,-5.94z"/>
     <path class="fil0" d="M3152.95 2808.87c2.37,3.19 4.79,6.36 7.13,9.63 4.72,6.51 9.51,13.06 14.35,19.57 3.63,4.79 7.26,9.4 10.87,14.14 5.1,6.62 10.13,13.24 15.32,19.73 4.46,5.64 9.12,11.28 13.73,16.87 4.38,5.25 8.68,10.61 13.06,15.78 8.43,9.95 16.87,19.69 25.57,29.22 0.8,0.94 1.65,1.92 2.48,2.85 -4.28,-0.74 -8.5,-1.91 -12.62,-2.85 -8.6,-1.84 -17.23,-3.61 -25.71,-5.85 -2.11,-0.54 -4.12,-1.06 -6.2,-1.6 -11.23,-3.14 -22.26,-6.72 -33.3,-10.59 -3.76,-1.36 -7.55,-2.68 -11.31,-4.06 -9.56,-3.58 -19.19,-7.5 -28.59,-11.7 -5.2,-2.31 -10.43,-4.76 -15.63,-7.24 -6.6,-3.11 -13.14,-6.41 -19.68,-9.86 -3.79,-2.01 -7.47,-3.94 -11.13,-6.05 25.45,-21.97 47.19,-48.3 61.66,-67.99z"/>
     <path class="fil0" d="M3001.33 2543.2c0.97,2.36 2.22,4.63 3.3,6.98 8.19,18.1 16.5,36.13 25.34,53.78 2.14,4.27 4.43,8.36 6.54,12.56 8.09,15.92 16.28,31.83 24.8,47.37 21.95,39.74 45.46,78.14 70.5,114.97 -16.85,23.79 -43.68,56.87 -72.43,79.61 -1.62,-1.06 -3.17,-2.14 -4.71,-3.17 -9.51,-6.07 -18.91,-12.44 -28.16,-19.16 -0.79,-0.54 -1.59,-1.16 -2.39,-1.8 -8.35,-6 -16.59,-12.29 -24.75,-18.81 -1.85,-1.41 -3.63,-3.01 -5.46,-4.48 -6.95,-5.64 -13.93,-11.46 -20.86,-17.57 -2.73,-2.34 -5.46,-4.89 -8.19,-7.3 -5.8,-5.31 -11.59,-10.59 -17.38,-16.1 -3.36,-3.4 -6.88,-6.83 -10.31,-10.18 -4.76,-4.89 -9.63,-9.71 -14.42,-14.7 -4,-4.23 -7.94,-8.53 -11.92,-12.88 -4.05,-4.46 -8.14,-8.92 -12.09,-13.44 -4.38,-4.97 -8.7,-10.05 -12.95,-15.17 -3.55,-4.23 -7.01,-8.4 -10.43,-12.68 -4.48,-5.56 -8.97,-11.1 -13.29,-16.87 -1.7,-2.19 -3.33,-4.32 -4.97,-6.51 69.88,-25.58 118.14,-84.43 144.23,-124.45z"/>
     <path class="fil0" d="M2916.08 2301.74c2.75,9.96 5.64,19.78 8.47,29.57 1,3.52 1.96,7.15 3.07,10.6 4.4,15.23 9.04,30.19 13.98,45.18 1.39,4.2 2.63,8.4 3.97,12.57 4.71,13.93 9.65,27.71 14.6,41.44 4.05,11.02 8.22,21.89 12.49,32.68 3.84,10.13 7.76,20.17 11.82,30.16 -18.88,32.87 -70.21,109.46 -149.33,133.88 -7.8,-11.23 -15.37,-22.92 -22.84,-34.62 -4.2,-6.64 -8.4,-13.28 -12.54,-20.03 -5.7,-9.37 -11.23,-18.93 -16.72,-28.67 -3.45,-6 -7,-12.11 -10.38,-18.46 -5.84,-10.82 -11.72,-22 -17.29,-33.23 -2.75,-5.36 -5.43,-10.72 -8.08,-16.12 -5.98,-12.42 -11.72,-24.98 -17.39,-37.76 -1.41,-3.27 -2.93,-6.49 -4.3,-9.89 95.15,-16.77 157.58,-87.65 190.47,-137.3z"/>
     <path class="fil0" d="M2708.18 1198.34c-0.21,0.54 -0.44,1.01 -0.75,1.5 -1,0.05 -1.88,0 -2.83,0.05l3.58 -1.55z"/>
     <path class="fil0" d="M3024.12 2503.33l-2.31 -1.04c-33.1,-78.53 -82.24,-252.64 -82.24,-252.64 -29.75,-124.6 -45.62,-254.12 -45.62,-385.01 0,-29.16 2.68,-90.87 2.68,-90.87 3.92,-72.42 27.18,-224.23 27.18,-224.23 15.04,-79.14 36.03,-156.39 62.17,-231.07 3.42,-8.53 3.91,-10.52 3.91,-10.52 31.83,-88.86 70.91,-173.95 117.42,-253.77 7.47,-9.55 135.22,-200.14 218.05,-284.85l178.46 0c-68.92,70.93 -130.04,149.82 -183.35,234.79 0,0 -1.29,2.57 -4.05,6.59 -38.37,61.89 -72.29,127 -101.76,194.89 0,0 0,0 -4.35,9.97 -32.79,76.93 -59.76,157.18 -80.39,239.89 0,0 -33.06,157.49 -40.87,234.04 0,0 -9.2,119.63 -9.2,175.14 0,31.39 1.16,62.71 2.84,93.9 0,0 18.85,192.27 28.87,231.67 10.02,39.36 49.35,199.48 82.29,283.13 0,0 75.08,166.34 116.52,234.59 0,0 12.52,23.64 23.54,38.04 43.55,67.04 177.27,217.12 179.7,224.43 -97.95,2.68 -205.69,-29.92 -205.69,-29.92l-26.68 -27.05c-106.81,-117.88 -193.73,-256.62 -258.05,-408.17 0.44,-0.85 0.81,-1.6 0.93,-1.93z"/>
     <path class="fil0" d="M2859.26 1864.64c0,24.44 0.54,48.55 1.65,72.71 0.93,22.81 2.5,45.58 4.35,68.22 0.08,0.93 0.08,1.81 0.15,2.76 -20.85,32.14 -107.94,155.38 -224.04,163.55 -2.6,-12.39 -4.94,-24.86 -7.19,-37.4 -1.03,-5.33 -2,-10.64 -2.91,-16 -2.04,-11.35 -3.73,-22.68 -5.48,-34.07 -0.78,-5.03 -1.52,-9.94 -2.32,-14.96 -1.6,-11.75 -3.07,-23.57 -4.41,-35.42 -0.59,-4.94 -1.23,-9.86 -1.72,-14.83 -1.29,-11.8 -2.42,-23.52 -3.38,-35.37 -0.36,-3.55 -0.64,-7.08 -0.98,-10.69 92.11,-13.03 193.25,-102.4 247,-156.59 -0.49,15.94 -0.72,31.99 -0.72,48.09z"/>
     <path class="fil0" d="M2781.68 1130.37c8.01,-14.19 16.2,-28.02 24.6,-41.57 2.12,-3.43 4.33,-6.7 6.52,-10.07 9.14,-14.3 18.51,-28.36 28.2,-41.88 1.39,-1.95 2.83,-3.91 4.25,-5.87 10.45,-14.48 21.3,-28.72 32.37,-42.32 0.1,-0.12 0.26,-0.31 0.44,-0.51 134.19,-29.42 250.86,-88.66 322.18,-130.77 -1.68,2.02 -3.24,4.13 -4.81,6.16 -4.18,5.28 -8.2,10.58 -12.32,15.92 -9.56,12.49 -18.93,25.09 -28.23,37.97 -3.32,4.6 -6.64,9.16 -9.94,13.85 -22.27,31.73 -43.53,64.44 -63.51,98.29 -53.6,35.54 -214.5,137.66 -333.23,164.23 8.24,-17.04 16.92,-33.5 25.91,-49.81 2.43,-4.53 4.97,-9.11 7.57,-13.62z"/>
     <path class="fil0" d="M2722.32 1251.42c2.83,-6.54 5.64,-13.06 8.5,-19.57 101.63,-15.2 233.62,-88.03 314.78,-138.1 -2.99,5.63 -5.77,11.63 -8.76,17.38 -3.42,6.7 -6.77,13.37 -10.09,20.17 -6.34,13.03 -12.62,26.14 -18.68,39.4 -2.7,5.93 -5.53,11.8 -8.18,17.83 -8.4,18.88 -16.41,37.91 -24.11,57.3 -1.6,4.07 -2.99,8.24 -4.63,12.44 -5.06,12.93 -10.05,25.84 -14.79,39.05 -67.28,50.09 -202.39,137.64 -302.09,157.47 3.43,-13.52 7.26,-26.76 10.97,-40.11 2.48,-8.85 4.97,-17.72 7.6,-26.4 2.99,-10.04 6.29,-20.03 9.51,-29.89 3.06,-9.3 6.07,-18.65 9.29,-27.9 3.12,-8.8 6.37,-17.41 9.61,-26.17 3.71,-9.89 7.5,-19.96 11.36,-29.77 3.19,-7.78 6.49,-15.48 9.71,-23.13z"/>
     <path class="fil0" d="M3325.74 2666.15c-23.2,-39.89 -44.5,-81.44 -64.21,-124.14 176.27,131.51 326.25,117.58 350.57,114.25 34,68.79 72.52,133.39 114.5,193.81 -82.69,-8.31 -260.75,-36.44 -366.42,-127.43 -0.92,-1.42 -1.78,-2.81 -2.63,-4.23l0.06 0c-10.46,-16.12 -20.56,-32.74 -30.24,-49.45 -0.54,-0.9 -1.14,-1.83 -1.63,-2.81z"/>
     <path class="fil0" d="M3190.94 2361.25c-0.38,-1.31 -0.8,-2.67 -1.16,-3.86 -5.64,-17.9 -10.87,-35.87 -15.91,-54.08 -1.16,-4.3 -2.33,-8.68 -3.54,-12.96 -1.79,-7.13 -3.57,-14.42 -5.35,-21.63 65.29,65.8 182.66,150.49 350.27,144.2 22.82,73.12 50.07,143.13 81.16,209.89 -44.61,2.7 -198.16,-0.62 -365.34,-150.57 -14.65,-36.24 -28.12,-73.12 -40.13,-110.99z"/>
     <path class="fil0" d="M3122.38 2019.71c61.74,67.22 181.42,167.8 335.57,153.5 11.87,70.27 27.63,138.75 46.85,205.02 -194.25,2.83 -316.38,-129.52 -356.51,-181.4 -11.75,-57.77 -20.43,-116.93 -25.91,-177.12z"/>
     <path class="fil0" d="M3489.81 2893.06c-7.5,-8.55 -14.97,-17.16 -22.36,-25.86 -4.71,-5.61 -9.45,-11.41 -14.14,-17.13 -6.98,-8.58 -13.93,-17.21 -20.7,-26.01 -4.02,-5.26 -8.11,-10.38 -12.09,-15.63 -1.75,-2.32 -3.34,-4.69 -5.02,-6.96 127.08,67.07 285.69,82.52 337.71,85.9 11.77,15.79 61.64,70.26 66.63,80.9 -126.62,14.96 -267.16,2.29 -267.16,2.29 -17.52,-19.58 -42.01,-54.4 -50.38,-63.46 -4.23,-4.62 -8.26,-9.4 -12.49,-14.04z"/>
     <path class="fil0" d="M3977.7 2763.1c227.67,0 412.34,-404.19 412.34,-902.89 0,-498.63 -184.67,-902.81 -412.34,-902.81 -227.79,0 -412.38,404.18 -412.38,902.81 0,498.7 184.59,902.89 412.38,902.89zm-507.72 -954.9c8.94,-388.18 132.15,-751.64 346.79,-1023.11 4.3,-5.46 8.71,-10.48 13.04,-15.76l192.11 0c267.08,38.81 478.08,510.27 478.08,1086.55 0,548 -220.91,987.52 -444.26,1067.39 -98.81,41.62 -195.15,40.07 -195.15,40.07 -235,-274.89 -400.97,-708.38 -390.61,-1155.14z"/>
     <path class="fil0" d="M3115.63 1918.13c-0.02,-0.79 -0.13,-1.65 -0.13,-2.39 -0.59,-17.01 -0.92,-33.97 -0.92,-51.1 0,-23.47 0.56,-46.78 1.62,-70.03 0.13,-5.07 0.54,-10.13 0.77,-15.22 0.64,-12.06 1.52,-23.82 2.4,-35.7 60.7,79.2 188.74,219.23 313.7,184.61 2.7,71.61 9.3,141.86 19.57,210.51 -168.13,13.88 -295.83,-128.94 -334.98,-178.65 -0.82,-13.96 -1.46,-27.99 -2.03,-42.03z"/>
     <path class="fil0" d="M3131.06 1630.8c1.83,-12.57 3.61,-25.19 5.69,-37.76 0.72,-4.5 1.63,-8.93 2.32,-13.37 2.29,-13.08 4.61,-26.06 7.26,-39.01 0.75,-3.89 1.57,-7.65 2.35,-11.46 1.52,-7.29 3.22,-14.45 4.71,-21.64 48.14,72.94 152.01,198.73 285.27,178.03 -3.43,40.25 -5.98,80.84 -6.88,121.74 -0.64,28.46 -0.59,56.82 0,85.02 -124.73,43.55 -268.06,-144.57 -308.14,-201.74 0.9,-8.32 1.93,-16.62 2.96,-24.83 1.26,-11.7 2.86,-23.33 4.46,-34.98z"/>
     <path class="fil0" d="M3391.5 959.64c10.97,-15.61 22.2,-30.99 33.74,-46.08 4.97,-6.47 10.15,-12.75 15.27,-19.11 7.81,-9.84 15.63,-19.71 23.69,-29.28 5.9,-7.03 11.93,-13.79 18.01,-20.69 5.56,-6.25 11.12,-12.62 16.74,-18.8 25.89,52.1 80.41,143.25 146.83,150.26 -36.33,66.66 -68.33,136.71 -95.7,209.4 -119.66,-1.55 -177.49,-123.27 -195.44,-170.61 10.97,-17.16 22.1,-34.15 33.69,-50.72 1,-1.54 2.14,-2.85 3.17,-4.37z"/>
     <path class="fil0" d="M3780.87 769.33c-43.37,55.58 -82.83,114.87 -118.55,177.3l-1.03 -5.36c-52.16,9.59 -110.72,-88.21 -136.84,-142.94 9.4,-9.81 18.88,-19.58 28.59,-29l227.83 0z"/>
     <path class="fil0" d="M3294.2 1119.42c6.61,-12.72 13.39,-25.23 20.37,-37.6 1.98,-3.4 3.99,-6.93 5.9,-10.41 3.84,-6.61 7.82,-13.15 11.74,-19.75 27.2,60.53 89.37,159.74 205.51,167.8 -23.08,65.29 -42.48,132.51 -58.16,201.49 -138.7,19.91 -211.48,-147.09 -232.09,-204.22 13.42,-30.85 27.82,-61.01 43.14,-90.58 1.13,-2.24 2.4,-4.54 3.59,-6.73z"/>
     <path class="fil0" d="M3185.23 1385.99c3,-9.91 6,-20.01 9.24,-29.93 2.73,-8.31 5.61,-16.55 8.48,-24.8 3.27,-9.4 6.51,-18.8 9.91,-28.15 3.01,-8.14 6.13,-16.17 9.19,-24.21 2.17,-5.46 4.33,-10.99 6.52,-16.4 33.82,76.64 110.7,205.03 243.08,194.4 -13.08,63 -23.05,127.41 -29.82,192.83 -136.43,28.31 -245.43,-136.06 -277.24,-190.21 2.55,-9.96 5.2,-19.72 7.91,-29.48 3.99,-14.74 8.29,-29.49 12.73,-44.05z"/>
    </g>
    <path class="fil0" d="M4213.54 3293.63l-1147.54 0 0 -83.25 -458.52 239.81 458.52 239.81 0 -83.25 1147.54 0 0 -313.12zm-573.77 0m-573.77 -41.63m-229.26 78.28m0 239.81m229.26 78.29m573.77 -41.63m573.77 -156.56"/>
   </g>
  </g>
 </g>
</svg>
