<?xml version="1.0" encoding="UTF-8"?>
<!DOCTYPE svg PUBLIC "-//W3C//DTD SVG 1.1//EN" "http://www.w3.org/Graphics/SVG/1.1/DTD/svg11.dtd">
<!-- Creator: CorelDRAW 2017 -->
<svg xmlns="http://www.w3.org/2000/svg" xml:space="preserve" width="177.504mm" height="210mm" version="1.1" style="shape-rendering:geometricPrecision; text-rendering:geometricPrecision; image-rendering:optimizeQuality; fill-rule:evenodd; clip-rule:evenodd"
viewBox="0 0 17750.4 21000"
 xmlns:xlink="http://www.w3.org/1999/xlink">
 <defs>
  <style type="text/css">
   <![CDATA[
    .fil0 {fill:black}
   ]]>
  </style>
 </defs>
 <g id="Layer_x0020_1">
  <metadata id="CorelCorpID_0Corel-Layer"/>
  <g id="_2881939139392">
   <g>
    <path class="fil0" d="M2930.81 0.04l8507.94 0 4794.11 4793.53 0 4530.82 1487.9 7677.83c157.63,751.02 -329.39,1488.33 -1079.84,1659.09l-487.59 79.67c-250.29,500.16 -751.02,908.65 -1330.27,908.65l-3055.48 0 -6861.27 1316.57c-750.45,171.34 -1488.48,-328.82 -1567,-1066.85l-92.67 -249.72 -315.83 0c-750.45,0 -1409.37,-658.93 -1409.37,-1409.37l0 -7256.77 -1487.91 -7678.25c-170.76,-736.88 328.97,-1487.9 1079.99,-1645.53l407.92 -92.81 0 -157.63c0,-751.02 658.92,-1409.23 1409.37,-1409.23l0 0zm8178.55 658.21l-8178.55 0c-421.62,0 -750.45,329.4 -750.45,751.02l0 16830.99c0,421.05 328.83,750.44 750.45,750.44l11892.25 0c422.05,0 750.44,-329.39 750.44,-750.44l0 -13117.15 -2067.58 0c-1329.85,0 -2396.56,-1079.98 -2396.56,-2397.13l0 -2067.73z"/>
    <path class="fil0" d="M10928.56 9125.65c-233.65,-96.66 -234.99,-458.2 -155.32,-588.88 55.11,-90.34 275.01,-169.71 551.31,-279.73 -336.23,-267.66 -806.53,-256.12 -1083.15,104.13 -297.75,387.57 -194.55,753.01 -341.39,1088.13 -27.75,63.24 -73.48,153.7 -208.5,274.05l-816.28 727.73 -816.29 -727.73c-135.05,-120.35 -180.78,-210.89 -208.58,-274.05 -146.8,-335.12 -43.52,-700.56 -341.27,-1088.21 -276.74,-360.17 -746.92,-371.71 -1083.23,-104.05 276.3,110.02 496.2,189.39 551.31,279.73 79.67,130.68 78.34,492.22 -155.32,588.88 -116.65,48.29 -408.84,-65.33 -702.37,-214.76 -4.38,173.56 35.39,345.3 110.62,483.77 178.09,327.87 583.47,524.53 1053.9,478.26 176.96,-17.43 307.05,88.97 480.67,267.83l676.7 697.13 -1284.39 1145.05 -250.69 223.52c-328.15,292.55 -58.03,739.28 250.69,721.42 79.91,-4.62 162.29,-40.29 237.71,-117.88l1480.53 -1525.18 1480.51 1525.18c75.37,77.59 157.8,113.26 237.78,117.88 308.64,17.78 578.76,-428.87 250.69,-721.42l-250.69 -223.52 -1284.44 -1145.08 676.68 -697.1c173.7,-178.86 303.78,-285.26 480.68,-267.83 470.41,46.27 875.79,-150.39 1053.85,-478.26 75.34,-138.47 115.04,-310.21 110.65,-483.77 -293.56,149.43 -585.72,263.05 -702.37,214.76z"/>
   </g>
   <path class="fil0" d="M10488.02 12362.28l0 0c31.82,-23.17 68.79,-34.33 105.49,-34.25 55.48,0 110.15,25.74 145.23,74.02 58.27,80.28 40.46,192.59 -39.82,250.73 -31.92,23.26 -68.81,34.34 -105.41,34.34 -55.54,-0.05 -110.25,-25.7 -145.35,-74.07 -58.25,-80.23 -40.43,-192.5 39.86,-250.77z"/>
   <path class="fil0" d="M7302.25 12613.05l0 0c-35.01,48.29 -89.81,74.02 -145.27,74.07 -36.58,0 -73.57,-11.08 -105.49,-34.34 -80.23,-58.14 -98.01,-170.45 -39.79,-250.73 35.02,-48.28 89.81,-74.02 145.28,-74.02 36.62,-0.08 73.6,11.08 105.41,34.25 80.3,58.27 98.12,170.54 39.86,250.77z"/>
  </g>
 </g>
</svg>
