<?xml version="1.0" encoding="UTF-8"?>
<!DOCTYPE svg PUBLIC "-//W3C//DTD SVG 1.1//EN" "http://www.w3.org/Graphics/SVG/1.1/DTD/svg11.dtd">
<!-- Creator: CorelDRAW 2017 -->
<svg xmlns="http://www.w3.org/2000/svg" xml:space="preserve" width="177.504mm" height="210mm" version="1.1" style="shape-rendering:geometricPrecision; text-rendering:geometricPrecision; image-rendering:optimizeQuality; fill-rule:evenodd; clip-rule:evenodd"
viewBox="0 0 17750.4 21000"
 xmlns:xlink="http://www.w3.org/1999/xlink">
 <defs>
  <style type="text/css">
   <![CDATA[
    .fil1 {fill:black}
    .fil0 {fill:black;fill-rule:nonzero}
   ]]>
  </style>
 </defs>
 <g id="Layer_x0020_1">
  <metadata id="CorelCorpID_0Corel-Layer"/>
  <g id="_2881928550160">
   <g>
    <path class="fil0" d="M11021.37 11272.65c124.46,-194.52 280.1,-568.04 832.48,-599.15 552.44,-31.1 951.22,-135.6 951.22,-135.6 0,0 38.4,454.93 -311.78,579.39 -350.1,124.46 -1471.92,155.36 -1471.92,155.36z"/>
    <path class="fil0" d="M8875.2 10842.47c-788.46,0 -1960.74,-96.3 -1960.74,-96.3 0,0 290.48,860.98 466.86,985.52 176.4,124.46 1493.88,158.54 1493.88,158.54 0,0 1317.48,-34.08 1493.86,-158.54 176.4,-124.54 466.8,-985.52 466.8,-985.52 0,0 -1172.2,96.3 -1960.66,96.3z"/>
    <path class="fil0" d="M11307.97 12310.39l1658.82 0 0 415.86c0,111.6 -90.52,202.14 -202.14,202.14l-1254.54 0c-111.7,0 -202.14,-90.54 -202.14,-202.14l0 -415.86z"/>
    <path class="fil0" d="M12539.87 9646.5c0,0 490.14,466.8 560.2,575.74 70,108.94 54.48,1112.99 54.48,1112.99 0,0 171.16,-879.53 147.8,-1074.05 -23.34,-194.52 -762.48,-614.68 -762.48,-614.68z"/>
    <path class="fil0" d="M12345.33 9520.42c0,0 58.72,-151.7 133.42,-231.92 74.66,-80.14 480.22,-123.9 506.88,-58.28 26.68,65.62 5.3,217.32 -117.4,290.2 -122.7,72.88 -522.9,0 -522.9,0z"/>
    <polygon class="fil0" points="11307.97,12310.39 10000.77,12310.39 11437.57,12501.95 "/>
    <path class="fil0" d="M8875.2 8071.61c-1492.4,0 -2429.16,138.44 -2622.06,332.26 -192.9,193.82 -698.5,1106.88 -698.5,1106.88 0,0 569.88,42.04 3320.56,42.04 2750.68,0 3320.56,-42.04 3320.56,-42.04 0,0 -505.68,-913.06 -698.5,-1106.88 -192.9,-193.82 -1129.68,-332.26 -2622.06,-332.26z"/>
    <path class="fil0" d="M6729.05 11272.65c-124.46,-194.52 -280.1,-568.04 -832.48,-599.15 -552.46,-31.1 -951.24,-135.6 -951.24,-135.6 0,0 -38.38,454.93 311.78,579.39 350.1,124.46 1471.94,155.36 1471.94,155.36z"/>
    <path class="fil0" d="M6442.45 12310.39l-1658.84 0 0 415.86c0,111.6 90.46,202.14 202.14,202.14l1254.56 0c111.68,0 202.14,-90.54 202.14,-202.14l0 -415.86z"/>
    <path class="fil0" d="M5210.55 9646.5c0,0 -490.14,466.8 -560.22,575.74 -69.98,108.94 -54.46,1112.99 -54.46,1112.99 0,0 -171.16,-879.53 -147.82,-1074.05 23.36,-194.52 762.5,-614.68 762.5,-614.68z"/>
    <path class="fil0" d="M5405.07 9520.42c0,0 -58.7,-151.7 -133.42,-231.92 -74.64,-80.14 -480.2,-123.9 -506.88,-58.28 -26.66,65.62 -5.28,217.32 117.42,290.2 122.7,72.88 522.88,0 522.88,0z"/>
    <polygon class="fil0" points="6442.45,12310.39 7749.63,12310.39 6312.77,12501.95 "/>
   </g>
   <path class="fil1" d="M2930.81 0.04l8507.94 0 4794.11 4793.53 0 4530.82 1487.9 7677.83c157.63,751.02 -329.39,1488.33 -1079.84,1659.09l-487.59 79.67c-250.29,500.16 -751.02,908.65 -1330.27,908.65l-3055.48 0 -6861.27 1316.57c-750.45,171.34 -1488.48,-328.82 -1567,-1066.85l-92.67 -249.72 -315.83 0c-750.45,0 -1409.37,-658.93 -1409.37,-1409.37l0 -7256.77 -1487.91 -7678.25c-170.76,-736.88 328.97,-1487.9 1079.99,-1645.53l407.92 -92.81 0 -157.63c0,-751.02 658.92,-1409.23 1409.37,-1409.23l0 0zm8178.55 658.21l-8178.55 0c-421.62,0 -750.45,329.4 -750.45,751.02l0 16830.99c0,421.05 328.83,750.44 750.45,750.44l11892.25 0c422.05,0 750.44,-329.39 750.44,-750.44l0 -13117.15 -2067.58 0c-1329.85,0 -2396.56,-1079.98 -2396.56,-2397.13l0 -2067.73z"/>
  </g>
 </g>
</svg>
