<?xml version="1.0" encoding="UTF-8"?>
<!DOCTYPE svg PUBLIC "-//W3C//DTD SVG 1.1//EN" "http://www.w3.org/Graphics/SVG/1.1/DTD/svg11.dtd">
<!-- Creator: CorelDRAW 2017 -->
<svg xmlns="http://www.w3.org/2000/svg" xml:space="preserve" width="177.504mm" height="156.4mm" version="1.1" style="shape-rendering:geometricPrecision; text-rendering:geometricPrecision; image-rendering:optimizeQuality; fill-rule:evenodd; clip-rule:evenodd"
viewBox="0 0 17750.4 15640"
 xmlns:xlink="http://www.w3.org/1999/xlink">
 <defs>
  <style type="text/css">
   <![CDATA[
    .fil0 {fill:black}
   ]]>
  </style>
 </defs>
 <g id="Layer_x0020_1">
  <metadata id="CorelCorpID_0Corel-Layer"/>
  <path class="fil0" d="M15487.53 3394.22c-752.42,-311.27 -756.73,-1475.53 -500.17,-1896.35 177.47,-290.92 885.6,-546.51 1775.36,-900.8 -1082.75,-861.93 -2597.24,-824.77 -3488.02,335.32 -958.83,1248.08 -626.5,2424.89 -1099.37,3504.06 -89.36,203.65 -236.62,494.95 -671.42,882.51l-2628.63 2343.48 -2628.66 -2343.48c-434.9,-387.56 -582.16,-679.12 -671.68,-882.51 -472.74,-1079.17 -140.15,-2255.98 -1098.98,-3504.31 -891.17,-1159.84 -2405.27,-1197 -3488.28,-335.07 889.76,354.29 1597.9,609.88 1775.36,900.8 256.56,420.82 252.28,1585.08 -500.17,1896.35 -375.64,155.5 -1316.57,-210.38 -2261.81,-691.59 -14.1,558.91 113.97,1111.96 356.23,1557.87 573.49,1055.82 1878.92,1689.12 3393.82,1540.12 569.86,-56.13 988.78,286.5 1547.88,862.48l2179.15 2244.93 -4136.06 3687.36 -807.29 719.79c-1056.73,942.08 -186.87,2380.67 807.29,2323.15 257.33,-14.87 522.61,-129.74 765.48,-379.6l4767.69 -4911.47 4767.62 4911.47c242.71,249.86 508.15,364.73 765.71,379.6 993.9,57.26 1863.76,-1381.07 807.29,-2323.15l-807.29 -719.79 -4136.22 -3687.45 2179.08 -2244.84c559.36,-575.98 978.25,-918.61 1547.91,-862.48 1514.84,149 2820.27,-484.3 3393.67,-1540.12 242.61,-445.91 370.45,-998.96 356.32,-1557.87 -945.34,481.21 -1886.17,847.09 -2261.81,691.59z"/>
 </g>
</svg>
