<?xml version="1.0" encoding="UTF-8"?>
<!DOCTYPE svg PUBLIC "-//W3C//DTD SVG 1.1//EN" "http://www.w3.org/Graphics/SVG/1.1/DTD/svg11.dtd">
<!-- Creator: CorelDRAW 2017 -->
<svg xmlns="http://www.w3.org/2000/svg" xml:space="preserve" width="50mm" height="50mm" version="1.1" style="shape-rendering:geometricPrecision; text-rendering:geometricPrecision; image-rendering:optimizeQuality; fill-rule:evenodd; clip-rule:evenodd"
viewBox="0 0 5000 5000"
 xmlns:xlink="http://www.w3.org/1999/xlink">
 <defs>
  <style type="text/css">
   <![CDATA[
    .fil0 {fill:black}
   ]]>
  </style>
 </defs>
 <g id="Слой_x0020_1">
  <metadata id="CorelCorpID_0Corel-Layer"/>
  <g id="_1870439524496">
   <path class="fil0" d="M4500 1321.86c-10.63,39.81 -80.79,121.9 -108.03,158.2 -75.66,100.86 -796.25,1044.48 -807.8,1087.76 -43.28,-0.97 -112.79,-39.4 -190.25,-65.33 -431.76,-144.54 -976.34,-167.28 -1408.6,-10.69 -49.93,18.09 -110.41,54.22 -158.27,65.37 -26.62,-50.3 -105.72,-148.93 -117.14,-191.69 459.11,-242.93 1117.5,-254.06 1627.22,-115.04 47.5,12.96 121.53,46.9 172.49,51.14 10.15,-37.99 302.31,-413.77 333.16,-454.88 58.6,-78.07 111.06,-148.04 168.89,-225.13 28.87,-38.48 53.26,-71.08 82.13,-109.56 28.81,-38.41 61.37,-77.75 86.72,-115.61l-318.16 -107.8c-108.18,-33.51 -220.62,-57.76 -339.96,-86.01 -110.27,-26.11 -240.57,-44.95 -363.58,-62.39 -489.92,-69.45 -924.05,-24 -1396.55,74.28 -146.08,30.39 -405.84,102.47 -545.35,157.5l-167.26 67.02c-31.04,-20.79 -116.97,-140.48 -127.79,-181.04l180.91 -74.66c423.76,-169.32 1104.67,-298.06 1565.56,-298.06 524.89,0 973.28,99.63 1439,254.22 156.32,51.89 260.25,112.33 392.66,182.4z"/>
   <path class="fil0" d="M2082.63 3068.33c0,75.93 -114.79,181.02 -228.14,15.16 -60.81,-88.98 -509.07,-749.62 -538.6,-771.26 -21.58,92.63 0.11,80.06 117.14,255.59l794.42 1186.33c84.24,126.35 132.06,161.01 132.06,251.31 0,71 -140.62,192.29 -237.79,24.8l-585.57 -969.22c-46.08,-77.26 -87.01,-142.06 -133.06,-218.35 -23.43,-38.82 -257.59,-410.51 -257.59,-445.26 0,-37.2 53.47,-32.99 79.92,-187.46 9.05,-52.88 -44.93,-100.63 -92.7,-172.49l-555.83 -807.27c-22.12,-33.31 -37.97,-50.1 -58.63,-80.48 -52.16,-76.66 18.19,-121 77.03,-44.4l1411.33 1815.37c28.87,38.55 76.01,85.74 76.01,147.63z"/>
  </g>
 </g>
</svg>
