<?xml version="1.0" encoding="utf-8"?>
<!-- Generator: Adobe Illustrator 22.0.1, SVG Export Plug-In . SVG Version: 6.00 Build 0)  -->
<svg version="1.1" id="Layer_1" xmlns="http://www.w3.org/2000/svg" xmlns:xlink="http://www.w3.org/1999/xlink" x="0px" y="0px"
	 viewBox="0 0 512 512" style="enable-background:new 0 0 512 512;" xml:space="preserve">
<style type="text/css">
	.st0{fill:#E2E5E7;}
	.st1{fill:#B0B7BD;}
	.st2{fill:#CAD1D8;}
	.st3{fill:#576D7E;}
	.st4{fill:#FFFFFF;}
</style>
<path class="st0" d="M128,0c-17.6,0-32,14.4-32,32v448c0,17.6,14.4,32,32,32h320c17.6,0,32-14.4,32-32V128L352,0H128z"/>
<path class="st1" d="M384,128h96L352,0v96C352,113.6,366.4,128,384,128z"/>
<polygon class="st2" points="480,224 384,128 480,128 "/>
<path class="st3" d="M416,416c0,8.8-7.2,16-16,16H48c-8.8,0-16-7.2-16-16V256c0-8.8,7.2-16,16-16h352c8.8,0,16,7.2,16,16V416z"/>
<g>
	<path class="st4" d="M94.9,375.7c0,11.1-17,11.5-17,0.3v-72.7c0-4.5,3.5-7.8,7.7-7.8h34c32.5,0,39.1,43.5,12,54.4l17,20.7
		c6.7,9.9-6.6,19.3-14.3,9.6L115,352.5H94.9V375.7z M94.9,337.8h24.7c16.6,0,17.7-26.9,0-26.9H94.9V337.8z"/>
	<path class="st4" d="M273,375.7c0,11.1-17,11.5-17,0.3v-72.7c0-4.5,3.5-7.8,7.7-7.8h34c32.5,0,39.1,43.5,12,54.4l17,20.7
		c6.7,9.9-6.6,19.3-14.3,9.6l-19.3-27.6H273V375.7z M273,337.8h24.7c16.6,0,17.7-26.9,0-26.9H273V337.8z"/>
	<path class="st4" d="M162.6,384c-4.1-2.3-6.7-6.9-4.1-12.3l36.7-71.8c3.5-6.8,12.7-7,15.9,0l36.1,71.8c5.2,10-10.2,17.9-14.8,7.9
		l-5.6-11.3h-47.2l-5.5,11.3C172,384,167.2,384.9,162.6,384z M217.6,351.5l-14.4-31.6l-15.7,31.6H217.6z"/>
</g>
<path class="st2" d="M400,432H96v16h304c8.8,0,16-7.2,16-16v-16C416,424.8,408.8,432,400,432z"/>
</svg>
